<svg width="22" height="21" viewBox="0 0 22 21" fill="none" xmlns="http://www.w3.org/2000/svg">
<path d="M10.9854 13.8591L14.2268 17.5444C15.4277 18.9097 16.0282 19.5924 16.6567 19.4262C17.2852 19.26 17.5008 18.3616 17.9318 16.5646L20.3229 6.5967C20.9868 3.82912 21.3187 2.44534 20.5808 1.7628C19.843 1.08027 18.564 1.58805 16.0061 2.60362L4.13876 7.31529C2.09293 8.12754 1.07001 8.5337 1.00507 9.2316C0.998421 9.303 0.998311 9.3749 1.00474 9.4463C1.06754 10.1445 2.08921 10.5541 4.13255 11.3731C5.05838 11.7442 5.5213 11.9298 5.8532 12.2852C5.89052 12.3251 5.9264 12.3665 5.96078 12.4092C6.26658 12.7892 6.39709 13.2879 6.65808 14.2852L7.14653 16.1518C7.4005 17.1223 7.52749 17.6076 7.86008 17.6738C8.19267 17.7399 8.48225 17.3375 9.0614 16.5327L10.9854 13.8591ZM10.9854 13.8591L10.6676 13.5279C10.3059 13.1509 10.1251 12.9625 10.1251 12.7283C10.1251 12.4941 10.3059 12.3056 10.6676 11.9286L14.2406 8.20489" fill="white"/>
<path d="M10.9854 13.8591L14.2268 17.5444C15.4277 18.9097 16.0282 19.5924 16.6567 19.4262C17.2852 19.26 17.5008 18.3616 17.9318 16.5646L20.3229 6.5967C20.9868 3.82912 21.3187 2.44534 20.5808 1.7628C19.843 1.08027 18.564 1.58805 16.0061 2.60362L4.13876 7.31529C2.09293 8.12754 1.07001 8.5337 1.00507 9.2316C0.998421 9.303 0.998311 9.3749 1.00474 9.4463C1.06754 10.1445 2.08921 10.5541 4.13255 11.3731C5.05838 11.7442 5.5213 11.9298 5.8532 12.2852C5.89052 12.3251 5.9264 12.3665 5.96078 12.4092C6.26658 12.7892 6.39709 13.2879 6.65808 14.2852L7.14653 16.1518C7.4005 17.1223 7.52749 17.6076 7.86008 17.6738C8.19267 17.7399 8.48225 17.3375 9.0614 16.5327L10.9854 13.8591ZM10.9854 13.8591L10.6676 13.5279C10.3059 13.1509 10.1251 12.9625 10.1251 12.7283C10.1251 12.4941 10.3059 12.3056 10.6676 11.9286L14.2406 8.20489" stroke="#2F01BA" stroke-width="1.5" stroke-linecap="round" stroke-linejoin="round"/>
</svg>
