<svg width="20" height="18" viewBox="0 0 20 18" fill="none" xmlns="http://www.w3.org/2000/svg">
<path d="M18.977 3.66152C18.517 4.25899 17.6265 5.20417 16.9958 5.62893C16.9958 5.46417 16.9958 5.785 16.9958 5.62893C17.0009 8.46321 16.094 11.5067 14.0239 13.4986C11.9537 15.4905 9.00859 16.4892 6.09899 16.4497C4.41686 16.4552 2.65485 16.1901 1.14589 15.466C1.06452 15.4313 1.14558 15.5525 1.14589 15.466C1.14589 15.3415 1.01806 14.4823 1.14589 14.4823C2.79938 14.4291 4.78907 14.4828 6.09899 13.4986C4.60235 13.4691 3.74685 11.8747 3.12713 10.5474C3.07985 10.6112 3.09584 10.475 3.12713 10.5474C3.04664 10.5413 3.1744 10.4837 3.12713 10.5474C3.58199 10.5919 3.67889 10.6721 4.11775 10.5474C2.46558 10.2136 1.32356 9.23073 1.14589 7.59633C1.13958 7.51793 1.08043 6.65873 1.14589 6.61263C1.07146 6.58206 1.21134 6.56663 1.14589 6.61263C1.58925 6.8031 2.64257 7.59238 3.12713 7.59633C1.67944 6.67132 0.595166 4.27665 1.14589 2.67781C1.20274 2.52245 1.97039 2.70981 2.13651 2.67781C2.02322 2.55522 2.30262 2.6458 2.13651 2.67781C4.09008 4.70199 7.21258 6.47874 10.0615 6.61263C9.98856 6.32915 9.06887 5.92118 9.07085 5.62893C9.0975 4.09647 10.5774 2.25283 12.0427 1.69411C13.5079 1.13539 14.9174 1.57026 16.0052 2.67781C16.7466 2.5403 17.3171 2.03381 17.9864 1.69411C18.0355 1.66431 18.928 1.66431 18.977 1.69411C19.0077 1.74186 19.0077 2.63005 18.977 2.67781C18.6528 3.40062 17.6906 3.25639 16.9958 3.66152C17.6042 3.59282 18.4028 3.86928 18.977 3.66152C19.0254 3.62948 18.9287 3.62948 18.977 3.66152C19.0176 3.67955 18.9651 3.61975 18.977 3.66152C19.002 3.62562 18.989 3.70329 18.977 3.66152Z" fill="white"/>
<path d="M18.977 3.66152L19.3699 3.93476C19.3654 3.94113 19.3607 3.9473 19.3559 3.95325L18.977 3.66152ZM18.977 3.66152L18.714 4.05837C18.7404 4.07558 18.7645 4.08787 18.7835 4.09632L18.977 3.66152ZM18.977 3.66152L19.139 4.10904C19.145 4.10685 19.1512 4.10449 19.1574 4.10197C19.1776 4.09371 19.2071 4.07988 19.2401 4.05837L18.977 3.66152ZM8.63043 5.9046C6.44761 5.39556 4.22273 4.04745 2.67115 2.50787C2.65142 2.43854 2.62003 2.38401 2.59224 2.34564C2.55335 2.29194 2.51119 2.25516 2.4802 2.23185C2.41929 2.18603 2.35791 2.15957 2.31051 2.14421C2.26294 2.12878 2.19836 2.11446 2.12322 2.11555C2.08498 2.11611 2.0306 2.12085 1.96907 2.1403C1.95026 2.14624 1.92918 2.15409 1.90681 2.16446C1.89349 2.16285 1.87908 2.16109 1.86405 2.15926C1.7911 2.15039 1.70337 2.13971 1.65321 2.13437C1.5412 2.12243 1.3993 2.11025 1.27238 2.11761C1.21111 2.12116 1.11964 2.1307 1.02588 2.16507C0.938366 2.19715 0.756733 2.2863 0.676343 2.50599L0.676258 2.50595L0.673151 2.51497C0.34341 3.47226 0.515735 4.60436 0.925978 5.58305C0.996956 5.75238 1.07618 5.91987 1.16294 6.08384C1.13461 6.08305 1.10921 6.08456 1.0877 6.08693C1.04353 6.0918 0.983704 6.10385 0.919401 6.13378C0.886695 6.14901 0.840091 6.17477 0.792631 6.21725C0.768917 6.23848 0.74143 6.26716 0.715527 6.30397L0.125699 6.71853L0.615488 6.92895C0.615927 6.98862 0.617352 7.04973 0.619235 7.10841C0.626934 7.34829 0.643835 7.59087 0.647503 7.63645L0.647308 7.63646L0.64882 7.65037C0.749724 8.57861 1.12966 9.3437 1.73332 9.92095C1.97158 10.1488 2.24061 10.3436 2.53469 10.5069L2.19936 10.9591L2.79642 11.0175C3.08629 11.6205 3.44343 12.2874 3.90174 12.8317C4.15184 13.1288 4.44243 13.4012 4.77905 13.608C4.4418 13.7165 4.07478 13.7918 3.68489 13.844C3.01749 13.9334 2.32736 13.9509 1.64327 13.9683C1.47326 13.9727 1.30362 13.977 1.1348 13.9824C0.782097 13.9887 0.658679 14.2959 0.639975 14.3467C0.606516 14.4376 0.597212 14.5281 0.593277 14.5822C0.584564 14.7022 0.590913 14.8432 0.599154 14.962C0.607775 15.0863 0.620561 15.2129 0.630489 15.3104C0.630844 15.3139 0.631192 15.3173 0.631533 15.3207C0.599093 15.428 0.610005 15.5231 0.619878 15.5722C0.636412 15.6544 0.669817 15.7188 0.699727 15.7635C0.729837 15.8085 0.775945 15.8627 0.84336 15.9085C0.887381 15.9384 0.978892 15.9898 1.10191 15.9971C2.65843 16.7023 4.43016 16.9547 6.09638 16.9497C9.11559 16.9897 12.1927 15.9545 14.3706 13.8589L14.3706 13.8589C16.5037 11.8064 17.4453 8.738 17.4938 5.88537C18.1148 5.40782 18.853 4.62109 19.2935 4.06827C19.3247 4.044 19.3482 4.01985 19.3647 4.00089C19.4013 3.95878 19.4241 3.91844 19.4377 3.8909C19.4447 3.87713 19.4511 3.8629 19.457 3.84823C19.4927 3.75859 19.4957 3.67703 19.4908 3.61918C19.4883 3.57124 19.4785 3.52019 19.4585 3.46702C19.4052 3.32571 19.307 3.24671 19.234 3.20513C19.308 3.11541 19.3742 3.01179 19.4291 2.89156C19.4476 2.85293 19.4566 2.82205 19.4599 2.8106C19.4673 2.78539 19.4717 2.76354 19.4742 2.74949C19.4795 2.72099 19.4826 2.69364 19.4846 2.67311C19.4889 2.6304 19.4917 2.58081 19.4938 2.53174C19.498 2.43172 19.5 2.30725 19.5 2.18596C19.5 2.06466 19.498 1.9402 19.4938 1.84017C19.4917 1.79111 19.4889 1.74152 19.4846 1.69881C19.4826 1.67828 19.4795 1.65093 19.4742 1.62242C19.4717 1.60838 19.4673 1.58653 19.4599 1.56132C19.4551 1.54469 19.4382 1.48709 19.398 1.42429L19.3356 1.3269L19.2367 1.26682C19.1758 1.2298 19.1206 1.21431 19.1044 1.2098C19.0801 1.20301 19.0589 1.19889 19.0452 1.19646C19.0173 1.19155 18.9905 1.18856 18.97 1.1866C18.9276 1.18254 18.8781 1.17977 18.8288 1.17776C18.7285 1.17367 18.6036 1.17176 18.4817 1.17176C18.3599 1.17176 18.2349 1.17367 18.1346 1.17776C18.0854 1.17977 18.0359 1.18254 17.9934 1.1866C17.973 1.18856 17.9461 1.19155 17.9183 1.19646C17.9045 1.19889 17.8834 1.20301 17.859 1.2098C17.8457 1.21353 17.8055 1.2248 17.7575 1.2496C17.5242 1.36818 17.2824 1.51732 17.0659 1.65089C16.9601 1.7161 16.8604 1.7776 16.7707 1.83001C16.5535 1.95683 16.3535 2.05805 16.1519 2.12462C14.9751 1.04805 13.4504 0.62222 11.8646 1.22692C11.025 1.54703 10.2187 2.21558 9.62119 2.99122C9.02605 3.76372 8.58676 4.70961 8.57092 5.62023L8.5709 5.62023L8.57086 5.62554C8.57012 5.73435 8.5969 5.82866 8.63043 5.9046ZM1.28134 6.29734L1.14589 6.61263L0.858 6.20383C0.855611 6.20551 0.85325 6.2072 0.850915 6.20891L1.28134 6.29734ZM2.08448 2.18158C2.08639 2.18151 2.08742 2.18152 2.08746 2.18154C2.0875 2.18156 2.08654 2.1816 2.08448 2.18158Z" stroke="#3401CC"/>
</svg>
