<svg width="101" height="102" viewBox="0 0 101 102" fill="none" xmlns="http://www.w3.org/2000/svg">
<path d="M79.4572 64.1574C79.6002 64.7849 79.8682 65.3774 80.2447 65.8999C80.6212 66.4219 81.0987 66.8629 81.6492 67.1969C82.1992 67.5309 82.8112 67.7509 83.4482 67.8439C84.0852 67.9369 84.7342 67.9009 85.3572 67.7384C89.7862 66.6384 90.2792 60.9484 86.6072 58.8274C85.7852 58.3569 84.8437 58.1369 83.8982 58.1939C82.9532 58.2514 82.0447 58.5834 81.2857 59.1494C80.5262 59.7154 79.9487 60.4909 79.6242 61.3804C79.2992 62.2704 79.2412 63.2354 79.4572 64.1574ZM81.3507 59.4164C81.8587 59.0204 82.4447 58.7359 83.0702 58.5819C83.6957 58.4274 84.3467 58.4064 84.9807 58.5204C85.6147 58.6344 86.2177 58.8809 86.7502 59.2439C87.2827 59.6064 87.7327 60.0774 88.0712 60.6254C90.9797 65.3544 84.6307 70.1389 80.8322 66.1859C80.3932 65.7214 80.0557 65.1699 79.8427 64.5669C79.6292 63.9644 79.5442 63.3234 79.5932 62.6859C79.6422 62.0484 79.8242 61.4279 80.1272 60.8649C80.4302 60.3019 80.8477 59.8084 81.3527 59.4164H81.3507Z" fill="#A28AE8"/>
<path d="M84.2083 66.8868C84.7673 66.8718 85.3168 66.7348 85.8173 66.4863C86.3183 66.2373 86.7593 65.8823 87.1088 65.4458C87.4588 65.0093 87.7093 64.5018 87.8428 63.9588C87.9768 63.4158 87.9908 62.8503 87.8833 62.3013C87.7763 61.7523 87.5508 61.2328 87.2228 60.7798C86.8948 60.3268 86.4718 59.9508 85.9838 59.6778C85.4958 59.4048 84.9538 59.2418 84.3963 59.1993C83.8383 59.1568 83.2783 59.2368 82.7543 59.4328C82.0443 59.7278 81.4258 60.2078 80.9638 60.8228C79.0628 63.9263 81.4528 66.9958 84.2083 66.8868ZM83.4713 65.9013C83.6753 65.1578 83.8283 64.5233 83.8713 64.4853C83.9258 64.4498 83.9873 64.4268 84.0518 64.4168C84.3018 64.3528 85.5978 63.9358 85.8313 63.8743C85.9273 63.8488 85.9918 63.8428 85.8248 64.0143C85.8263 64.1023 83.4028 66.1593 83.4713 65.9013ZM83.8143 63.6703C83.7498 63.8768 83.6938 63.8328 83.6643 63.8078C83.2898 63.4413 83.0008 63.1518 82.6873 62.7913C82.5373 62.6183 82.4458 62.5578 82.5333 62.5373C83.0333 62.4173 83.5413 62.3313 84.0528 62.2788C84.0733 62.2758 84.1938 62.2563 84.1528 62.3843C84.1528 62.4343 83.9078 63.3713 83.8143 63.6703ZM84.5328 62.3743C84.9378 62.6378 85.3138 62.9443 85.6528 63.2883C85.8623 63.4848 85.7848 63.4883 85.2493 63.6463C84.0638 64.0013 84.0358 63.9643 84.0793 63.7853C84.4088 62.4303 84.3818 62.2893 84.5328 62.3743ZM85.0133 60.0868C85.1538 60.4413 85.7978 62.8023 85.7978 62.8203C85.9978 63.6298 85.9978 63.0418 84.5978 62.1108C84.5318 62.0668 84.5478 62.0338 84.5858 61.8243C84.6098 61.6953 84.9318 60.2283 84.9593 60.1283C84.9818 60.0503 85.0028 60.0623 85.0133 60.0868ZM84.7573 60.0338C84.8753 59.9443 84.6668 60.3838 84.4253 61.3663C84.2603 62.0348 84.2528 61.9853 84.1453 61.9913C83.5618 62.0708 82.9823 62.1793 82.4093 62.3168C83.1398 61.5043 83.9243 60.7413 84.7573 60.0338ZM82.2833 62.9203C82.3413 62.8748 82.9493 63.7203 83.5648 64.3548C83.4918 64.8493 83.3918 65.3398 83.2648 65.8233C83.1973 66.0913 82.1398 62.9878 82.2833 62.9203Z" fill="#A28AE8"/>
<path d="M53.5527 61.5795C55.6257 62.5735 66.1887 65.762 67.8877 65.3295C68.6312 65.14 68.9532 64.408 69.3747 63.5795C73.0747 56.2915 73.6497 55.361 72.1657 53.2045C71.6727 52.4885 71.1477 52.3515 69.8377 51.934C67.3172 51.1295 58.6002 48.838 55.9477 48.761C54.0977 48.6045 53.2082 50.9035 52.0632 53.0385C51.6557 53.7985 50.0977 57.379 50.5082 58.527C51.3292 60.8245 52.2417 60.9505 53.5527 61.5795ZM51.0157 57.076C51.2272 56.0285 52.2967 53.279 54.1477 50.308C55.0827 48.808 55.9837 49.381 55.9922 49.208C58.7507 49.5205 65.3647 51.1255 68.1832 51.9515C72.6722 53.2665 72.8132 52.7695 69.4797 59.465C67.9332 62.5715 67.6437 63.784 66.2417 63.5015C60.2167 62.288 52.9417 59.964 51.4552 59.0115C50.8722 58.696 50.8837 57.7275 51.0152 57.076H51.0157Z" fill="#A28AE8"/>
<path d="M81.6686 53.4199C79.9906 55.1699 75.3092 65.3564 75.2187 67.3469C75.1882 68.0294 75.6322 67.4869 80.2187 69.6909C85.9222 72.4309 87.1316 74.0174 87.6651 73.1634C89.1056 70.8559 93.7841 59.2039 92.9336 58.0794C92.2951 57.2354 89.3092 55.6839 87.6477 54.7719C86.8057 54.3099 84.2602 52.8719 82.8447 52.8949C82.6197 52.8684 82.3912 52.9029 82.1842 52.9954C81.9772 53.0879 81.7991 53.2344 81.6686 53.4199ZM83.2187 53.5484C86.2627 54.3484 91.4767 57.4944 92.3127 58.2024C92.6547 58.4919 92.7126 58.5459 91.2806 63.1024C90.2411 66.0894 89.0301 69.0139 87.6526 71.8609C87.1972 72.8139 87.2336 72.7304 87.0876 72.6564C83.9626 71.0774 83.8062 70.4564 77.9807 67.9189C75.5307 66.8529 75.5931 68.0269 76.1846 66.1189C77.4881 62.3674 79.1381 58.7449 81.1126 55.2989C81.2411 55.0744 81.4007 54.8894 81.7027 54.3689C82.0732 53.7304 82.5081 53.3614 83.2191 53.5484H83.2187Z" fill="#A28AE8"/>
<path d="M56.6029 52.2999C55.9509 52.3484 55.3374 52.6284 54.8734 53.0889C54.4089 53.5494 54.1243 54.1609 54.0703 54.8124C54.0573 58.0254 57.5314 58.1209 58.5054 55.5479C59.0698 54.0529 58.2709 52.3794 56.6029 52.2999ZM57.6588 56.1414C56.5464 57.4014 54.6528 57.0444 54.5488 55.0344C54.5888 53.0519 56.6854 51.9894 57.8044 53.2604C58.1199 53.6824 58.2778 54.2014 58.2513 54.7274C58.2243 55.2534 58.0144 55.7539 57.6579 56.1414H57.6588Z" fill="#A28AE8"/>
<path d="M61.6493 54.3233C65.0843 55.3768 66.7118 55.9733 67.0493 55.9283C67.1708 55.9118 67.2533 55.7698 67.1493 55.6883C66.2813 55.0173 62.5523 54.0188 62.0493 54.0278C61.7133 54.0338 61.6233 54.0058 61.5628 54.1823C61.5373 54.2498 61.5778 54.3013 61.6493 54.3233Z" fill="#A28AE8"/>
<path d="M65.5175 56.5843C64.3625 56.1423 63.1805 55.7738 61.979 55.4803C61.7385 55.4133 61.4815 55.4443 61.264 55.5663C60.955 55.7663 61.403 55.9163 61.764 55.9853C64.4195 56.5063 65.493 57.2153 65.6565 56.8098C65.6885 56.7253 65.6555 56.6508 65.5175 56.5843Z" fill="#A28AE8"/>
<path d="M64.1349 57.8714C63.9849 57.7904 61.4734 56.9654 60.8904 56.8589C60.8454 56.8509 60.7994 56.8594 60.7599 56.8829C60.7209 56.9064 60.6914 56.9429 60.6769 56.9864C60.6629 57.0299 60.6644 57.0769 60.6819 57.1189C60.6994 57.1609 60.7314 57.1954 60.7724 57.2159C60.8969 57.2949 63.8454 58.2279 63.9909 58.2544C64.2324 58.2984 64.3914 58.0064 64.1349 57.8714Z" fill="#A28AE8"/>
<path d="M82.8965 56.3459C83.091 56.2679 82.716 56.9674 83.0105 57.0599C83.0735 57.0799 83.146 56.9284 83.171 56.8669C83.438 56.2059 83.3315 56.2194 83.605 56.3244C84.1375 56.5284 84.1865 56.5194 84.265 56.5034C84.3435 56.4874 84.357 56.4384 84.305 56.3949C84.1405 56.2564 83.971 56.1234 83.794 56.0009C83.5975 55.8649 84.53 55.6434 84.4645 55.4874C84.399 55.3314 84.394 55.4219 83.7495 55.5959C83.515 55.6594 83.654 55.5199 83.7115 55.0179C83.717 54.9764 83.7055 54.9344 83.68 54.9009C83.6545 54.8674 83.617 54.8459 83.5755 54.8399C83.534 54.8344 83.492 54.8449 83.4585 54.8704C83.425 54.8954 83.4025 54.9329 83.3965 54.9744C83.1595 55.6874 83.1965 55.6244 82.994 55.5104C82.524 55.2419 82.4195 55.3789 82.5015 55.6569C82.5375 55.7794 82.9515 55.8854 82.7975 55.9824C82.5415 56.1434 82.3295 56.2099 82.434 56.4004C82.503 56.5249 82.6255 56.4534 82.8965 56.3459Z" fill="#A28AE8"/>
<path d="M87.0636 69.6323C86.1591 69.5553 86.2547 69.7963 86.6177 69.0483C86.7677 68.7393 86.5507 68.5578 86.3332 68.8713C86.1542 69.1298 86.1292 69.3048 86.0287 69.1828C85.9122 69.0418 85.7137 68.7488 85.5327 68.8573C85.3517 68.9658 85.5717 69.1733 85.7377 69.4888C85.8752 69.7503 84.9792 69.4488 84.9457 69.7448C84.9392 69.8003 85.0267 69.9048 85.1127 69.9338C85.6102 70.1023 85.6987 69.8548 85.5997 70.1648C85.5652 70.2733 85.4772 70.3963 85.5847 70.5068C85.6347 70.5568 85.6847 70.5133 85.7212 70.4718C86.2177 69.8868 85.9297 69.9823 86.3617 70.4598C86.6177 70.7433 86.7296 70.6098 86.7011 70.5178C86.4676 69.7578 86.2312 70.0798 87.0877 69.7578C87.1752 69.7248 87.1126 69.6458 87.0636 69.6323Z" fill="#A28AE8"/>
<path d="M89.3947 60.4456C89.7372 60.4916 89.8537 60.3826 89.8212 60.5301C89.7167 61.0011 89.8082 60.8666 90.1587 60.5586C90.2672 60.7166 90.5087 61.1301 90.5352 60.8731C90.6047 60.1591 90.0632 60.5196 91.0602 60.1556C91.0982 60.1421 91.1532 60.1556 91.1777 60.0386C91.1872 59.9931 90.9812 59.9886 90.7437 59.9726C90.7437 59.9796 90.4867 60.0226 90.6002 59.7771C90.6502 59.6691 90.6752 59.5691 90.5667 59.5186C90.4032 59.4431 90.3637 59.5871 90.2597 59.7446C90.1372 59.9291 90.1567 59.7301 89.8492 59.4906C89.7492 59.4116 89.6102 59.5196 89.6917 59.7271C89.8012 60.0036 89.9202 60.0066 89.6842 60.0746C89.5702 60.0906 89.4597 60.1276 89.3587 60.1831C89.2567 60.2811 89.2927 60.4321 89.3947 60.4456Z" fill="#A28AE8"/>
<path d="M78.8151 65.2679C78.7506 65.1709 78.5921 65.3059 78.5006 65.3904C78.2006 65.6664 78.1886 65.7664 78.1156 65.6299C78.0701 65.5454 78.0156 65.3679 77.9321 65.3959C77.8986 65.4069 77.8706 65.4289 77.8521 65.4589C77.8336 65.4884 77.8266 65.5239 77.8321 65.5584C77.8136 65.7139 77.8191 65.6864 77.5986 65.6584C77.2906 65.6584 77.2371 65.9179 77.4901 66.0349C77.7431 66.1519 77.8011 66.0934 77.6986 66.2519C77.4386 66.6519 77.5021 66.5449 77.4676 66.6519C77.5606 66.6604 77.5606 66.7389 77.9436 66.4164C78.0721 66.3084 78.0286 66.4394 78.2196 66.7939C78.2411 66.8344 78.2956 66.8559 78.3356 66.8864C78.4441 66.5554 78.2151 66.2764 78.4136 66.3034C78.5006 66.3154 78.7291 66.3869 78.7391 66.3134C78.7541 66.2049 78.6811 66.1439 78.4941 66.0344C78.2356 65.8859 79.0161 65.5674 78.8151 65.2679Z" fill="#A28AE8"/>
<path d="M86.7317 57.079C86.9867 57.196 87.0062 57.1235 86.8997 57.2845C86.7262 57.5015 86.6197 57.6315 86.7022 57.7185C86.7847 57.8055 86.7962 57.8055 87.1952 57.475C87.3267 57.366 87.2147 57.4595 87.4122 57.828C87.4342 57.869 87.4957 58.045 87.6032 57.9615C87.7107 57.878 87.4792 57.3315 87.6842 57.3615C87.7732 57.3735 88.0107 57.4475 88.0217 57.3715C88.0387 57.2555 87.9612 57.198 87.7682 57.084C87.5007 56.926 88.2017 56.7495 87.9927 56.4445C87.9242 56.3445 87.7612 56.4835 87.6672 56.5705C87.3577 56.8555 87.4512 56.8 87.3772 56.6585C87.3312 56.57 87.2687 56.386 87.1887 56.4165C87.1527 56.4265 87.1222 56.449 87.1022 56.48C87.0817 56.5115 87.0742 56.549 87.0802 56.5855C87.0602 56.7455 87.1802 56.9195 86.8087 56.821C86.6242 56.771 86.5687 56.8385 86.5622 56.9005C86.5557 56.9625 86.5982 57.018 86.7317 57.079Z" fill="#A28AE8"/>
<path fill-rule="evenodd" clip-rule="evenodd" d="M96.228 57.3423C96.345 57.8528 96.329 58.3853 96.181 58.8878C95.9745 59.5778 95.699 60.2453 95.3585 60.8803C95.2525 61.0418 95.2865 61.1133 95.372 61.2953C95.456 61.4738 95.59 61.7573 95.6915 62.3348C95.7595 62.9978 95.7195 63.6673 95.5735 64.3173C95.4505 65.1158 94.904 65.8218 94.548 66.2813C94.3825 66.4953 94.2585 66.6553 94.2375 66.7468C94.2245 66.8043 94.242 66.8948 94.267 67.0233C94.3685 67.5403 94.589 68.6683 93.3925 70.6848C93.3325 70.7848 93.36 70.8698 93.4155 71.0388C93.5185 71.3543 93.7175 71.9623 93.62 73.5063C93.552 75.3243 93.1295 77.1118 92.3755 78.7673C92.2395 79.0718 92.3145 79.4068 92.4175 79.8663C92.512 80.2883 92.6305 80.8158 92.6305 81.5223C92.583 83.0073 92.2285 84.4668 91.5885 85.8078C91.525 85.9698 91.58 86.1073 91.665 86.3203C91.7465 86.5248 91.8555 86.7988 91.9145 87.2303C91.953 87.6023 91.966 87.9763 91.9535 88.3503C91.9855 89.1643 91.8335 89.6168 91.6975 90.0213C91.548 90.4668 91.418 90.8533 91.5755 91.6003C91.785 92.3993 91.9245 93.2153 91.9925 94.0388C92.0845 95.1538 92.0825 96.2743 91.986 97.3888C91.9325 97.7473 91.7785 98.1053 91.4225 98.0313C91.159 97.9763 91.165 97.8243 91.198 97.0438C91.2195 96.5278 91.2525 95.7378 91.2265 94.5198C91.127 93.5353 90.974 92.5573 90.7675 91.5898C90.6245 90.8713 90.6955 90.6278 90.864 90.0508C90.9475 89.7653 91.0545 89.3988 91.171 88.8533C91.1845 88.7883 91.182 88.0113 91.181 87.7118C91.1805 87.6618 91.1805 87.6253 91.1805 87.6073C91.1775 87.1158 91.063 86.8183 90.962 86.5558C90.789 86.1058 90.6555 85.7588 91.1925 84.7133C91.5765 83.8308 91.7965 82.8858 91.8425 81.9243C91.924 80.9978 91.783 80.3668 91.672 79.8708C91.607 79.5788 91.552 79.3338 91.559 79.1028C91.569 78.7808 91.6755 78.5288 91.843 78.1328C92.0275 77.6973 92.2855 77.0873 92.5705 76.0178C92.832 75.0358 93.113 72.4943 92.896 71.4213C92.8025 71.5183 92.7205 71.6028 92.649 71.6763C92.226 72.1123 92.1585 72.1813 92.1505 72.3978C92.0065 76.1658 90.399 77.4993 89.5435 78.2083C89.221 78.4758 89.006 78.6543 89.0165 78.8413C89.1505 81.2113 88.471 82.1628 86.7505 83.4318C86.552 83.5763 86.5565 83.7633 86.5655 84.1413C86.566 84.1703 86.567 84.2003 86.5675 84.2318C86.6 84.7323 86.506 85.2333 86.295 85.6883C86.0835 86.1433 85.761 86.5378 85.3575 86.8358C84.7625 87.2293 84.734 87.3073 84.6715 87.4773L84.6685 87.4858C84.63 87.5903 84.5995 87.6878 84.571 87.7788C84.4555 88.1458 84.3735 88.4068 83.9325 88.6163C83.3465 88.8943 82.968 89.0503 82.7195 89.1528C82.3295 89.3138 82.262 89.3418 82.218 89.5008C82.03 90.0998 81.6155 90.6018 81.0635 90.9008C79.951 91.5928 79.251 91.9413 77.732 91.6373C77.33 91.5573 76.986 91.6898 76.612 91.8348C75.8735 92.1198 75.0165 92.4513 73.36 91.2828C73.327 91.2593 73.2955 91.2368 73.266 91.2153C73.035 91.0483 72.8935 90.9463 72.56 91.0018C70.132 91.4018 69.08 90.4323 68.213 89.6333C68.0805 89.5108 67.952 89.3928 67.8235 89.2838C67.5525 89.0543 67.204 89.0168 66.7975 88.9733C66.0085 88.8888 65.001 88.7808 63.917 87.1968C63.5335 86.6368 63.08 86.4618 62.5945 86.2748C61.8565 85.9903 61.0445 85.6768 60.2905 83.9418C60.068 83.4293 59.7025 83.2753 59.0365 82.9953C59.0125 82.9853 58.9885 82.9753 58.964 82.9648C57.6195 82.4028 57.211 81.2883 56.889 80.4108C56.6985 79.8913 56.5385 79.4553 56.233 79.2648C56.013 79.1278 55.7765 79.0333 55.5365 78.9373C54.7455 78.6213 53.914 78.2888 53.492 76.3743C53.4335 76.1108 53.181 75.9503 52.8435 75.7358C52.4895 75.5108 52.0425 75.2263 51.6295 74.7028C51.171 74.1213 50.8615 73.4958 50.62 73.0073C50.389 72.5408 50.2205 72.1993 50.042 72.1398C49.4681 71.9068 49.01 71.4553 48.768 70.8853C48.5402 70.3523 48.4747 69.9793 48.4194 69.6648C48.3483 69.2603 48.2942 68.9528 47.9345 68.5263C47.5206 68.0858 47.1568 67.6003 46.8495 67.0798C46.452 66.4443 47.278 66.0728 47.8935 66.4068C48.4788 66.7628 49.0023 67.2113 49.4435 67.7353C49.4752 67.6513 49.4957 67.5308 49.5205 67.3853C49.5435 67.2503 49.5702 67.0938 49.613 66.9233C49.8379 66.0243 49.9516 65.8698 49.9165 65.7643C49.9039 65.7263 49.872 65.6948 49.819 65.6373C49.6064 65.3223 49.304 65.0783 48.951 64.9373C48.6262 64.8698 48.3231 64.7233 48.069 64.5098C48.0209 64.4418 47.9873 64.3643 47.9704 64.2828C47.9536 64.2013 47.9538 64.1173 47.9711 64.0353C47.9884 63.9538 48.0224 63.8768 48.0709 63.8093C48.1194 63.7413 48.1814 63.6843 48.253 63.6418C48.3946 63.5468 48.4734 63.5263 48.4741 63.5033C48.475 63.4718 48.3295 63.4363 47.998 63.1988C47.2775 62.6833 48.392 61.7623 49.998 62.2658C52.383 63.0138 52.4215 65.2918 52.45 66.9968C52.466 67.9383 52.479 68.7048 52.882 68.9438C53.668 69.4093 54.203 69.3073 54.725 69.2078C55.243 69.1093 55.747 69.0133 56.4695 69.4778C56.5325 69.5183 56.5925 69.5603 56.6505 69.6008C56.9595 69.8163 57.2245 70.0013 57.7525 69.8508C59.355 69.3953 59.5985 69.5588 60.1945 69.9588C60.339 70.0558 60.504 70.1663 60.7135 70.2853C61.0545 70.4788 61.257 70.4148 61.5865 70.3103C61.878 70.2178 62.2685 70.0943 62.9425 70.0888C63.5635 70.0853 63.8835 70.3158 64.5655 70.8063L64.606 70.8353C64.9185 71.0603 65.098 70.9908 65.381 70.8813C65.6205 70.7883 65.934 70.6673 66.464 70.6713C66.9905 70.6753 67.4995 70.8618 67.904 71.1988C68.195 71.4688 68.4275 71.4548 68.6695 71.4408C68.7245 71.4373 68.7795 71.4343 68.836 71.4343C68.945 71.4348 68.94 71.3988 68.9165 71.2373C68.8865 71.0273 68.8255 70.6048 68.9445 69.7753C68.9685 69.6003 69.0335 69.4338 69.135 69.2893C69.236 69.1443 69.3705 69.0263 69.5265 68.9438C69.7175 68.8308 69.736 68.8123 69.6765 68.5968C69.56 68.2553 69.5125 67.8938 69.5365 67.5333C69.5605 67.1733 69.6565 66.8213 69.8175 66.4983C69.979 66.1753 70.203 65.8878 70.4765 65.6523C70.7495 65.4163 71.0675 65.2373 71.4105 65.1253C71.556 65.0708 71.5515 65.0088 71.5265 64.6598C71.513 64.4693 71.4935 64.1938 71.4885 63.7883C71.4695 62.2548 72.1665 61.5023 73.3695 60.5328C73.797 60.1883 73.785 59.6978 73.7705 59.0873C73.753 58.3453 73.731 57.4258 74.489 56.3758C75.095 55.6058 75.919 55.0358 76.8535 54.7403C76.8965 54.7263 76.9375 54.7148 76.9765 54.7038C77.2075 54.6383 77.3625 54.5938 77.443 54.2293L77.4455 54.2188C77.682 53.1438 77.904 52.1343 78.576 51.3198C79.203 50.5593 80.6355 49.3353 81.558 49.5913C81.8545 49.6728 82.0345 50.0293 81.758 50.0793C81.3415 50.0448 80.9255 50.1466 80.572 50.3693C78.7005 51.4593 78.406 52.8663 78.19 53.8983C78.0545 54.5443 77.95 55.0433 77.5085 55.2253C77.411 55.2653 77.3005 55.3043 77.18 55.3468C76.569 55.5613 75.701 55.8668 74.9745 56.8723C74.4655 57.5773 74.4535 58.3778 74.4425 59.1118C74.432 59.8103 74.4225 60.4488 73.986 60.8878C73.7915 61.0838 73.6095 61.2538 73.442 61.4108C72.6995 62.1048 72.24 62.5343 72.24 63.7623C72.2395 64.0968 72.246 64.3683 72.251 64.5903C72.27 65.3853 72.274 65.5503 71.8875 65.7458C71.828 65.7758 71.7605 65.8063 71.687 65.8393C71.216 66.0518 70.515 66.3673 70.315 67.3063C70.199 67.8488 70.32 68.2448 70.416 68.5573C70.55 68.9958 70.634 69.2708 69.947 69.5593C69.547 69.7283 69.492 70.0918 69.447 70.8883C69.4135 71.4648 69.6645 71.5418 70.0535 71.6608C70.382 71.7613 70.8095 71.8918 71.247 72.3793C71.2545 72.3878 71.263 72.3968 71.2715 72.4063C71.396 72.5438 71.6145 72.7853 71.527 72.9218C71.493 72.9553 71.4525 72.9813 71.4075 72.9983C71.363 73.0148 71.3155 73.0223 71.268 73.0193C71.22 73.0168 71.1735 73.0038 71.131 72.9823C71.089 72.9603 71.0515 72.9298 71.0215 72.8928C70.3975 72.3503 69.591 72.0658 68.765 72.0963C68.5435 72.1458 68.313 72.1383 68.0955 72.0743C67.8775 72.0108 67.6795 71.8928 67.5195 71.7318C67.3385 71.5398 67.11 71.3998 66.8575 71.3253C66.6045 71.2508 66.3365 71.2448 66.0805 71.3083C65.91 71.3363 65.7585 71.4023 65.608 71.4673C65.247 71.6238 64.8935 71.7768 64.3065 71.3943C64.063 71.2353 63.891 71.1068 63.755 71.0048C63.4515 70.7773 63.3245 70.6823 62.978 70.6823C62.4605 70.6823 62.1085 70.7998 61.803 70.9018C61.242 71.0898 60.839 71.2243 59.8595 70.4763C59.7475 70.3598 59.6095 70.2713 59.457 70.2173C59.3045 70.1638 59.142 70.1463 58.9815 70.1668C58.618 70.2428 58.336 70.3203 58.103 70.3838C57.2945 70.6053 57.0775 70.6648 56.107 69.9498C55.5975 69.5738 54.9925 69.7098 54.5805 69.8023C54.465 69.8278 54.365 69.8503 54.286 69.8573C53.3555 69.9388 53.2 69.6873 53.1495 69.7068C53.1155 69.7203 53.129 69.8558 52.986 70.2983C52.723 71.2793 52.176 72.1608 51.4145 72.8328C51.3775 72.8728 51.3355 72.8893 51.3015 72.9033C51.2205 72.9358 51.1815 72.9513 51.345 73.2213C52.158 74.5633 52.855 74.9708 53.3635 75.2678C53.788 75.5153 54.081 75.6868 54.201 76.2598C54.5185 77.7768 55.154 78.0348 55.8425 78.3138C56.2135 78.4643 56.6005 78.6213 56.9605 78.9858C57.199 79.2273 57.2915 79.4868 57.429 79.8723C57.525 80.1423 57.6435 80.4743 57.8495 80.9053C58.336 81.9278 58.9695 82.2018 59.8805 82.5958L59.8915 82.6003C60.6845 82.9438 60.872 83.3823 61.0755 83.8583C61.338 84.4723 61.6265 85.1478 63.2775 85.7593C64.0075 86.0298 64.318 86.4488 64.631 86.8713C65.096 87.4993 65.5675 88.1353 67.4325 88.3053C67.9665 88.3528 68.372 88.7253 68.825 89.1408C69.498 89.7583 70.2745 90.4708 71.7285 90.3553C72.802 90.2698 72.803 90.2623 72.8165 90.1413C72.817 90.1348 72.818 90.1278 72.819 90.1208C72.8965 89.0898 73.1675 88.0828 73.619 87.1528C74.5235 85.4038 75.3695 84.0973 76.9615 82.8668C77.066 82.7618 77.1945 82.6838 77.336 82.6398C78.1175 81.8768 79.5205 81.5508 80.1255 81.4108C80.226 81.3873 80.3045 81.3693 80.3545 81.3548C81.091 81.2253 81.841 81.1888 82.587 81.2463C83.913 81.3473 85.181 81.8343 86.234 82.6463C86.249 82.6628 86.267 82.6758 86.2875 82.6848C86.3075 82.6938 86.3295 82.6988 86.3515 82.6988C86.364 82.6988 86.376 82.6973 86.388 82.6943C86.3975 82.6923 86.407 82.6888 86.416 82.6848C86.43 82.6788 86.443 82.6703 86.455 82.6608C86.46 82.6563 86.465 82.6513 86.4695 82.6463C88.3205 81.3203 88.312 80.0558 88.3055 79.1278C88.3015 78.5993 88.2985 78.1803 88.64 77.9208C91.038 76.0988 91.1875 74.7093 91.4075 72.6648C91.4245 72.5043 91.442 72.3398 91.4615 72.1708C91.489 71.9263 91.7415 71.6108 92.063 71.2083C92.692 70.4213 93.587 69.3018 93.587 67.7303C93.587 67.3038 93.542 67.0523 93.51 66.8738C93.466 66.6263 93.447 66.5183 93.6055 66.2803C93.671 66.1828 93.7515 66.0768 93.8405 65.9598C94.3195 65.3303 95.046 64.3758 94.972 62.6203C94.9415 62.1518 94.8 61.6973 94.5595 61.2943C94.425 61.0348 94.6405 60.6073 94.9085 60.0748C95.3855 59.1268 96.0305 57.8463 95.163 56.5898C95.0445 56.4183 94.9425 56.2823 94.8565 56.1678C94.43 55.5983 94.406 55.5658 94.796 54.4533C95.5525 52.2938 94.7055 51.5563 94.074 51.0066C93.7985 50.7667 93.564 50.5627 93.522 50.2918C93.4045 49.8233 93.189 49.385 92.8895 49.0058C92.5905 48.6266 92.2145 48.3151 91.786 48.0918C91.5825 47.9919 91.4055 47.9115 91.2475 47.8396C91.006 47.7297 90.8075 47.6394 90.6215 47.5288C90.412 47.4045 90.3605 47.2025 90.2975 46.9512C90.1565 46.3936 89.954 45.5931 87.8215 44.8593C87.7585 44.8377 87.693 44.8184 87.626 44.7988C87.2615 44.6917 86.8625 44.5746 86.7015 44.0163C86.633 43.786 86.5135 43.5743 86.3515 43.397C86.1895 43.2197 85.989 43.0815 85.766 42.9928C85.0335 42.6146 84.209 42.4513 83.3875 42.5218C83.2785 42.5196 83.221 42.6522 83.128 42.867C82.986 43.1934 82.762 43.7098 82.15 44.2323C81.279 45.1357 80.253 45.8755 79.1205 46.4168C77.1415 47.3178 73.9445 47.9423 67.304 46.7423C61.502 45.6928 60.598 43.2438 60.308 42.3103C60.1225 41.6691 60.104 40.9911 60.255 40.3408C60.2755 40.2343 60.268 40.2138 59.4 40.0303C58.988 39.8892 58.542 39.884 58.127 40.0153C57.3415 40.2432 56.6505 40.7195 56.1585 41.3728C55.977 41.5608 55.8895 41.5411 55.683 41.4943C55.482 41.4488 55.1685 41.3778 54.545 41.4478C53.8925 41.5848 53.2755 41.8574 52.735 42.2478C52.03 42.7452 51.4985 43.4511 51.2155 44.2663C51.084 44.5741 50.9345 44.5776 50.6315 44.5847C50.4325 44.5894 50.1675 44.5956 49.7975 44.6908C48.1305 45.1193 47.5745 46.0753 47.2625 47.7343C47.1857 48.1424 47.056 48.1954 46.7468 48.322C46.4496 48.4435 45.9868 48.6329 45.246 49.2698C44.3828 50.0133 44.2574 50.7196 44.149 51.3298C44.0488 51.8943 43.9631 52.3763 43.321 52.7293C41.345 53.8148 41.3356 54.3613 41.306 56.0823C41.3041 56.1933 41.3021 56.3083 41.2995 56.4293C41.2878 56.9813 41.0487 57.0383 40.6587 57.1308C40.4334 57.1843 40.1578 57.2493 39.8465 57.4293C38.8187 58.0223 38.6129 58.6208 38.352 59.3793C38.2705 59.6163 38.1836 59.8693 38.0645 60.1423C38.0422 60.1813 38.036 60.2278 38.0474 60.2713C38.0588 60.3148 38.0869 60.3523 38.1255 60.3753C38.9535 61.0538 39.1605 61.8873 38.8035 61.9458C38.6648 61.9683 38.6583 61.9573 38.6037 61.8628C38.5178 61.7143 38.3125 61.3598 37.2845 60.6078C36.6992 60.3018 36.0344 60.1818 35.379 60.2638C35.0856 60.2838 34.8737 60.3293 34.7073 60.3653C34.3912 60.4333 34.2392 60.4658 34.004 60.2223C33.031 59.2193 32.1725 58.8418 30.1775 59.6723C29.8599 59.8043 29.6896 59.7053 29.4163 59.5458C29.0876 59.3548 28.6101 59.0763 27.5485 59.0093C27.1474 58.9838 26.8584 59.0663 26.6163 59.1353C26.2551 59.2388 25.9982 59.3118 25.6285 58.9528C25.0496 58.3908 24.3635 58.5828 23.8316 58.7318C23.7686 58.7493 23.7078 58.7663 23.6495 58.7813C23.3388 58.8618 23.2708 58.7623 23.1755 58.6228C23.0786 58.4813 22.9535 58.2983 22.5165 58.2203C22.318 58.1843 22.1177 58.1583 21.9165 58.1433C21.3905 59.4878 20.2135 61.1573 18.7905 61.4378C18.7111 61.7208 18.7117 62.0198 18.7923 62.3023C18.8729 62.5848 19.0303 62.8393 19.247 63.0378C20.4168 63.9933 20.3823 64.1288 20.323 64.3623C20.2838 64.5168 20.2337 64.7138 20.5135 65.2188C21.0465 66.1798 21.7592 66.5628 22.7733 67.1083C22.798 67.1213 22.8229 67.1348 22.848 67.1483C23.078 67.2723 23.112 67.3568 23.1847 67.5383C23.2714 67.7548 23.4132 68.1088 24.009 68.8303C24.6759 69.6393 25.2734 69.7868 25.752 69.9053C26.1563 70.0048 26.4758 70.0838 26.6805 70.5233C27.211 71.2118 27.8882 71.7738 28.663 72.1683C29.1998 72.4253 29.7851 72.5648 30.38 72.5783C30.6796 72.6173 30.7141 72.7243 30.776 72.9158C30.8305 73.0838 30.906 73.3178 31.2015 73.6283C31.8277 74.3608 32.6752 74.8698 33.616 75.0783C34.0024 75.1663 34.3986 75.2023 34.7945 75.1868C34.8945 75.1888 34.9445 75.1573 34.9445 75.0488C34.934 74.0658 36.8275 70.4093 40.901 68.9558C41.3123 68.8028 41.737 68.6888 42.1695 68.6153C42.283 68.6073 42.2863 68.5068 42.2938 68.2778C42.3061 67.9003 42.3297 67.1743 42.876 65.9403C43.2393 65.1193 43.5282 64.7198 43.7167 64.4593C43.893 64.2158 43.9815 64.0933 43.961 63.8608C43.9208 63.3753 43.9527 62.8868 44.0555 62.4108C44.5371 60.1313 45.2353 59.3393 45.7112 58.7993C45.9808 58.4933 46.179 58.2683 46.226 57.8998C46.363 56.8208 46.9425 54.9648 47.717 54.0798C47.992 53.7653 48.4435 54.1613 48.138 54.3493C47.658 54.6438 47.0695 56.8278 46.8985 57.5873C46.8536 57.7853 46.8415 57.9493 46.8305 58.0958C46.8083 58.3953 46.7913 58.6233 46.512 58.9253C45.8889 59.5323 45.4104 60.2718 45.112 61.0888C44.855 61.7518 44.4825 63.2448 44.6355 63.9333C44.6675 64.0743 44.6629 64.2213 44.6223 64.3598C44.5818 64.4988 44.5064 64.6248 44.4035 64.7263C44.2251 64.9523 44.0678 65.1943 43.9335 65.4493C42.9 67.1298 42.9497 68.4808 42.9836 69.4008C43.002 69.9003 43.0157 70.2728 42.8485 70.5018C41.4355 72.4363 41.7183 74.9473 41.8363 75.9943C41.8541 76.1528 41.8681 76.2773 41.872 76.3618C41.8888 76.7268 41.7041 77.0663 41.4742 77.4893C41.2312 77.9358 40.9378 78.4758 40.778 79.2363C40.6768 79.7178 40.7622 80.2033 40.862 80.7713C40.9091 81.0398 40.9595 81.3263 40.995 81.6398C41.0362 82.0033 41.0781 82.2718 41.1101 82.4773C41.1893 82.9853 41.209 83.1113 41.0125 83.3433C40.3555 84.0923 39.9963 85.0568 40.003 86.0533C40.1059 86.7858 40.2826 87.2948 40.4189 87.6878C40.6237 88.2778 40.7369 88.6043 40.369 89.0263C40.2949 89.1108 40.2241 89.1763 40.1593 89.2363C39.9901 89.3928 39.8622 89.5108 39.826 89.8318C39.6845 91.1093 39.9314 91.8103 40.1069 92.3083C40.2713 92.7748 40.373 93.0633 40.0345 93.4818C39.9141 93.6308 39.8129 93.7393 39.7269 93.8318C39.5375 94.0358 39.4219 94.1598 39.338 94.4588C39.1709 95.4893 39.2376 96.5438 39.533 97.5448C39.679 97.7713 38.9725 97.8118 38.7455 97.0833C38.282 95.5963 38.23 94.0688 39.3695 93.0153C39.5075 92.8878 39.4304 92.6553 39.3103 92.2933C39.1324 91.7573 38.8601 90.9368 39.0545 89.7523C39.168 89.0543 39.4284 88.8168 39.6131 88.6483C39.7043 88.5653 39.7771 88.4988 39.8045 88.4023C39.7382 88.0708 39.6486 87.7448 39.5365 87.4258C39.1455 86.5528 39.1067 85.5628 39.428 84.6618C39.6488 83.7713 39.9384 83.4068 40.1336 83.1613C40.2956 82.9573 40.3928 82.8353 40.332 82.5618C40.273 82.2618 40.2303 81.9593 40.204 81.6548C40.166 81.3163 40.1294 81.0303 40.0977 80.7828C39.9224 79.4118 39.8945 79.1943 40.572 77.5313C40.609 77.4408 40.4103 77.4748 39.8913 77.5643C39.8638 77.5688 39.8353 77.5738 39.806 77.5788C38.113 77.8668 36.1975 76.8883 34.863 75.8168C34.7589 75.7328 34.6246 75.7528 34.4346 75.7808C34.1348 75.8253 33.6962 75.8903 33.018 75.5998C32.7906 75.5023 32.6123 75.4303 32.4646 75.3708C31.9624 75.1678 31.8141 75.1083 31.294 74.6738C30.5916 74.0873 30.3846 73.7178 30.259 73.4928C30.1494 73.2973 30.1016 73.2118 29.841 73.1898C28.9758 73.1133 28.1512 72.7878 27.4665 72.2533C26.616 71.5938 26.3299 71.2078 26.1516 70.9673C25.9787 70.7338 25.9072 70.6373 25.521 70.5613C23.971 70.2558 22.8525 68.6818 22.571 67.8613C22.532 67.7478 22.3358 67.6463 22.056 67.5008C21.4813 67.2028 20.5541 66.7218 19.9135 65.5828C19.6876 65.2548 19.5828 64.8583 19.617 64.4618C19.6686 64.3183 19.5064 64.1858 19.2683 63.9908C18.9524 63.7328 18.5029 63.3648 18.242 62.7178C18.075 62.3328 18.0315 61.9053 18.1175 61.4948C17.4756 61.4738 16.8458 61.3143 16.2718 61.0263C15.6977 60.7383 15.193 60.3288 14.7925 59.8268C13.9926 59.4358 13.2461 58.9438 12.571 58.3633C12.253 58.0878 11.5795 57.1848 12.0135 56.7633C12.2675 56.5163 12.8065 56.6668 13.0985 56.8003C12.6354 56.4363 12.237 55.9968 11.92 55.5003C11.7986 55.3468 11.7257 55.1603 11.7109 54.9648C11.696 54.7698 11.7397 54.5743 11.8365 54.4043C11.9549 54.2768 12.1094 54.1893 12.2792 54.1523C12.4491 54.1158 12.6261 54.1318 12.7865 54.1988C12.8008 54.2038 12.8157 54.2098 12.8311 54.2158C12.8518 54.2238 12.8732 54.2318 12.895 54.2393C12.4218 53.9228 12.0392 53.4888 11.785 52.9793C11.7424 52.8638 11.7381 52.7378 11.7727 52.6193C11.8072 52.5013 11.8789 52.3973 11.977 52.3228C12.0787 52.2488 12.1966 52.2008 12.3208 52.1818C12.3615 52.1758 12.4024 52.1728 12.4433 52.1728C12.5414 52.3403 12.6428 52.5133 12.7475 52.6923C12.4911 52.6143 12.2907 52.6053 12.225 52.7278C12.14 52.8848 12.359 53.1238 12.509 53.2703C12.8945 53.6583 13.2994 54.0263 13.722 54.3723C13.9147 54.7028 14.1281 55.0583 14.3638 55.4383C13.9526 55.1863 13.5197 54.9708 13.07 54.7938C12.669 54.6263 11.933 54.4648 12.276 55.1833C12.913 56.1958 14.1725 57.0238 15.1915 57.6423C15.2504 57.6733 15.2946 57.7263 15.3144 57.7898C15.3342 57.8533 15.3279 57.9218 15.297 57.9808C15.2661 58.0398 15.2131 58.0838 15.1496 58.1038C15.0861 58.1233 15.0174 58.1173 14.9585 58.0863C14.7335 57.9678 12.506 56.8133 12.3215 57.1268C12.2135 57.2798 12.4355 57.5778 12.7215 57.8723C13.3759 58.5453 14.0955 58.9058 14.5895 59.1533C14.8586 59.2878 15.0608 59.3893 15.149 59.4893C15.3639 59.7338 15.6102 59.9493 15.8815 60.1293C18.0595 61.5853 19.2675 60.6463 19.6935 60.2913C20.5262 59.5713 21.1468 58.6378 21.4885 57.5913C21.5784 57.3533 21.6568 57.1118 21.7235 56.8673C21.928 56.7173 22.1303 56.5643 22.3305 56.4083C22.3636 56.3808 22.3948 56.3548 22.4244 56.3288C22.3625 56.7288 22.2656 57.1243 22.134 57.5108C22.4468 57.5513 22.757 57.6103 23.063 57.6868C23.2948 57.7448 23.3949 57.8558 23.4734 57.9428C23.5528 58.0308 23.6101 58.0943 23.7595 58.0533C24.1088 57.9188 24.4857 57.8723 24.8573 57.9173C25.2288 57.9618 25.5837 58.0973 25.891 58.3108C26.1135 58.4843 26.309 58.6178 26.581 58.4418C27.6348 58.2063 28.7387 58.3793 29.6695 58.9268C29.9129 59.0598 30.1493 58.9678 30.4772 58.8403C30.8385 58.6998 31.311 58.5158 32.0265 58.5418C32.8272 58.5433 33.5956 58.8578 34.1675 59.4183C34.4677 59.7158 34.6541 59.6843 34.9814 59.6288C35.3983 59.5583 36.0439 59.4488 37.4445 59.9318C37.4732 59.9418 37.4901 59.9483 37.5019 59.9433C37.5486 59.9233 37.5173 59.7213 37.819 58.8108C37.9838 58.3123 38.2604 57.8583 38.6278 57.4833C38.9952 57.1083 39.4436 56.8228 39.9385 56.6478C40.1341 56.5793 40.2751 56.5408 40.3766 56.5133C40.5894 56.4553 40.6275 56.4448 40.6275 56.3053C40.6305 54.0848 40.705 53.3938 43.093 52.0578C43.3213 51.9298 43.3789 51.6258 43.4559 51.2183C43.5648 50.6426 43.7127 49.8611 44.4365 49.0813C44.8812 48.6461 45.3783 48.268 45.9165 47.9558C46.0892 47.8677 46.2186 47.817 46.3162 47.7787C46.5055 47.7045 46.575 47.6773 46.608 47.5153C46.7105 46.5786 47.1185 45.7016 47.769 45.0198C48.1607 44.5903 48.672 44.2879 49.237 44.1513C49.841 43.9609 50.1745 43.936 50.3745 43.921C50.576 43.906 50.6425 43.901 50.714 43.7478C50.9045 43.2013 51.2255 42.7096 51.6495 42.3153C52.1145 41.8225 52.68 41.4354 53.3075 41.1803C53.7195 40.9545 54.1775 40.8257 54.6465 40.8038C54.9885 40.7774 55.3325 40.7942 55.67 40.8538C55.7475 40.8764 55.867 40.7557 56.0475 40.5737C56.6015 40.0151 57.728 38.8798 59.953 39.5428C58.8225 37.9939 58.1645 36.1509 58.0585 34.2363C58.01 33.4195 58.0795 32.8168 58.1265 32.4126C58.1615 32.1053 58.184 31.9128 58.131 31.8283C57.3005 30.2581 56.8775 28.5045 56.9005 26.7283C57.287 21.2905 59.841 19.2669 60.998 18.3505C61.292 18.1175 61.4955 17.9561 61.5505 17.8283C63.338 13.6753 70.104 11.8813 74.504 12.3948C85.534 13.6827 87.0145 22.2278 87.4 24.4531C87.451 24.747 87.483 24.9307 87.515 24.9728C89.293 27.2983 88.436 32.8573 86.265 34.2423C86.1925 34.2884 86.128 34.3155 86.07 34.3399C85.928 34.3994 85.8235 34.4434 85.7315 34.7103C85.061 36.6528 82.703 39.1018 82.35 39.4208C82.154 39.5694 81.97 39.7335 81.8 39.9113C81.7915 39.9223 81.8155 39.9838 81.847 39.9838C82.277 40.0761 82.668 40.2983 82.967 40.6203C83.2665 40.9422 83.4595 41.3484 83.52 41.7838C83.5335 41.8689 83.535 41.9116 83.5575 41.933C83.619 41.9919 83.835 41.8896 84.87 42.0638C85.41 42.2022 85.925 42.4248 86.3955 42.7233C86.969 43.1328 87.095 43.4757 87.192 43.7394C87.2775 43.9713 87.3405 44.142 87.665 44.2428C88.8995 44.6253 89.879 44.9468 90.4995 45.9648C90.6665 46.2922 90.8045 46.6335 90.912 46.9848C90.968 47.1159 91.157 47.1903 91.427 47.2969C91.986 47.5171 92.8935 47.875 93.704 49.1553C93.912 49.4834 93.9565 49.7288 93.992 49.9255C94.0295 50.1332 94.057 50.2866 94.2575 50.4258C94.631 50.7115 94.956 51.056 95.219 51.4458C95.9855 52.4733 95.697 54.0998 95.1615 55.2633C95.0635 55.4763 95.2185 55.6478 95.4955 55.9543L95.5115 55.9718C95.864 56.3598 96.1105 56.8313 96.228 57.3423ZM22.4715 54.5668C22.4447 54.2998 22.4024 54.0333 22.3445 53.7693C22.261 53.5468 22.152 53.2568 21.8295 53.1928C21.7978 53.1863 21.7663 53.1843 21.7349 53.1858C22.0594 53.7823 22.2981 54.2273 22.4715 54.5668ZM40.6555 69.6048C38.182 70.4173 35.6645 73.4868 35.3385 75.2328C35.3224 75.3183 35.3135 75.3593 35.3254 75.3923C35.3369 75.4243 35.3675 75.4493 35.4295 75.5008C36.4056 76.2273 37.5303 76.7283 38.723 76.9683C39.4199 77.0448 40.1251 76.9748 40.7935 76.7633C41.1335 76.6548 41.1186 76.5043 41.059 75.8993C41.035 75.6563 41.0038 75.3403 40.9855 74.9238C40.8791 72.5088 41.3827 71.5763 41.7862 70.8298C42.0481 70.3448 42.2677 69.9383 42.251 69.2548C42.2506 69.2388 42.2521 69.2238 42.2535 69.2098C42.266 69.0828 42.2668 69.0753 40.6555 69.6048ZM83.822 30.3148C84.019 34.4593 85.8785 34.7303 87.019 32.1593C88.837 28.0608 87.0185 23.4628 85.336 25.4703C84.13 26.9106 83.9785 28.594 83.86 29.9067C83.8475 30.0472 83.835 30.1835 83.822 30.3148ZM84.2095 33.9086C84.117 33.798 83.9515 33.601 83.781 33.2423C82.7235 31.0203 83.224 27.6193 84.1695 25.9438C84.695 25.0146 85.033 24.8309 85.246 24.7152C85.286 24.6936 85.321 24.6745 85.3525 24.6533C85.36 24.6484 85.3675 24.6435 85.375 24.6384C85.4635 24.5804 85.5695 24.5108 85.5105 24.4648C85.306 24.3757 85.081 24.3452 84.8605 24.3768C84.265 24.4125 83.7025 24.6609 83.275 25.0768C81.9265 26.3658 81.0335 31.0333 82.2835 33.4203C82.623 34.0673 83.601 34.1278 84.215 34.0543C84.321 34.0413 84.299 34.0152 84.2095 33.9086ZM78.4885 13.9848C72.528 11.6723 65.8105 13.4708 63.0205 16.5923V16.5928C62.8165 16.7861 62.646 17.0122 62.517 17.2618C62.607 17.2409 62.7435 17.163 62.937 17.0527C63.8475 16.5334 66.0195 15.2944 70.5475 15.8783C74.3175 16.3653 78.9625 18.9323 81.857 23.1153C82.6145 24.2104 82.713 24.5409 82.8055 24.5393C82.9225 24.5372 83.0305 23.999 84.469 23.8118C85.169 23.7287 85.8775 23.8576 86.5035 24.1818C86.6425 24.2307 86.6245 24.1547 86.562 23.8903C86.533 23.7676 86.494 23.6044 86.457 23.3943C86.24 22.3017 85.877 21.2433 85.378 20.2473C84.6925 18.5848 82.7885 15.6523 78.4885 13.9848ZM70.331 36.4273C70.2685 36.2769 70.1705 36.042 70.082 35.6768V35.6773C70.067 35.6164 70.0525 35.5558 70.038 35.4956C69.5605 33.5331 69.167 31.916 69.632 29.1533C69.6415 29.0693 69.676 28.9901 69.7305 28.9256C69.7855 28.8611 69.858 28.8143 69.939 28.7911C70.0205 28.7679 70.107 28.7693 70.1875 28.7951C70.268 28.821 70.339 28.8701 70.3915 28.9363C71.069 29.7777 71.3635 30.1472 71.5085 30.0957C71.6985 30.0282 71.6325 29.239 71.834 27.8423C72.268 24.8268 72.6815 22.7533 74.1125 20.0033C74.914 18.4646 75.186 18.239 75.1465 18.151C75.137 18.129 75.1075 18.1155 75.0625 18.0923C73.9045 17.4971 72.679 17.0439 71.4125 16.7423C70.8895 16.5988 68.3935 24.3668 68.185 25.1108C68.111 25.3758 67.7325 25.6643 67.3265 24.7758C67.2065 24.4324 67.056 24.1004 66.8765 23.7838C66.56 24.3643 66.342 24.9931 66.2315 25.6448L66.1925 25.8418C65.383 29.9583 65.1115 31.3405 65.7975 35.3768C65.829 35.5608 65.849 35.7095 65.865 35.8298C65.916 36.2038 65.9295 36.3022 66.123 36.3268C67.475 36.6327 68.8625 36.754 70.247 36.6873C70.4385 36.6853 70.4215 36.6444 70.331 36.4273ZM58.7765 32.8023C58.554 33.6248 58.844 36.2073 59.85 38.1328V38.1333C62.228 42.6853 74.869 43.1538 79.7125 40.4138C82.979 38.5663 84.7885 35.2288 85.018 34.7708C85.0865 34.6337 84.909 34.6504 84.5965 34.6797C83.731 34.761 81.8305 34.9395 81.247 32.2273C81.189 31.9532 81.162 31.9941 81.025 32.2026C80.9385 32.3346 80.8075 32.5335 80.597 32.7623C75.1095 38.7228 66.655 38.0583 62.4215 35.6728C60.321 34.4889 59.8045 33.8992 59.364 33.3961C59.1885 33.1952 59.0245 33.008 58.7765 32.8023ZM79.0565 41.5863C77.9715 43.3099 75.895 43.9213 73.8615 44.0068C70.95 44.1604 68.034 43.7907 65.253 42.9153C64.351 42.6914 63.542 42.1911 62.9385 41.4843C63.9355 41.8299 64.95 42.1243 65.977 42.3663C73.4035 43.6712 77.4315 42.1719 78.667 41.7119C78.875 41.6345 79.004 41.5865 79.0565 41.5863ZM75.8365 46.6838C78.6925 46.1803 80.481 45.0148 81.3925 44.1533L81.389 44.1528C82.957 42.6703 82.956 42.0773 82.903 41.6958C82.836 41.3247 82.6485 40.9858 82.3705 40.7312C82.092 40.4766 81.738 40.3203 81.3625 40.2863C81.307 40.2744 81.1945 40.3534 81.022 40.4747C80.8045 40.6274 80.492 40.8471 80.078 41.0363C79.9425 41.0989 79.9215 41.184 79.885 41.3364C79.8605 41.4372 79.829 41.5675 79.7525 41.7403C79.302 42.7548 77.1675 44.3928 74.334 44.6463C74.086 44.6686 73.7175 44.655 73.3415 44.6412C73.0255 44.6295 72.7035 44.6177 72.444 44.6268C70.1845 44.5781 67.9395 44.2592 65.756 43.6768C64.718 43.4737 63.751 43.0044 62.9495 42.3148C62.4045 41.8305 62.314 41.548 62.2515 41.3524C62.2105 41.2228 62.181 41.1312 62.0395 41.0443C61.1115 40.4745 60.9115 40.3163 60.8605 40.355C60.846 40.3659 60.8435 40.3924 60.8395 40.4298C60.621 41.2128 60.7225 42.0506 61.1215 42.7588C62.6175 45.1318 65.678 45.7868 68.1675 46.2433C70.6915 46.7058 73.5945 47.0788 75.8365 46.6838ZM50.1615 71.7118C50.2775 71.7783 50.375 71.8343 50.4395 71.8983V71.8988C50.5135 71.9723 50.5775 72.0448 50.6355 72.1108C50.8505 72.3548 50.982 72.5038 51.2175 72.2528C51.676 71.6743 52.0565 71.0378 52.3495 70.3603C52.4615 70.0668 52.5275 69.7578 52.5455 69.4443C52.5555 69.3718 52.52 69.3178 52.464 69.2323C52.351 69.0593 52.1525 68.7563 52.0695 67.9068C52.0345 67.5458 52.008 67.1948 51.9825 66.8563C51.8115 64.5708 51.6835 62.8598 49.1395 62.6483C48.6806 62.7128 48.4289 62.7258 48.4167 62.7868C48.4016 62.8623 48.7528 63.0113 49.531 63.4208C49.8638 63.4983 50.183 63.6253 50.4785 63.7973C51.13 64.1298 51.5905 65.1378 51.3465 65.2473C51.1595 65.3313 51.0445 65.1278 50.91 64.8908C50.809 64.7123 50.697 64.5148 50.536 64.4053C50.269 64.1978 49.9549 64.0593 49.6214 64.0023C49.288 63.9458 48.9457 63.9723 48.625 64.0798C48.4768 64.1683 48.5897 64.2088 48.825 64.2938C49.1373 64.4063 49.6653 64.5968 50.0845 65.0798C50.494 65.5528 50.3805 65.9843 50.2245 66.5773C50.0369 67.2908 49.7878 68.2378 50.3145 69.7718C50.3615 69.9088 50.3485 70.1318 50.1985 70.0488C49.8712 69.8683 49.7019 69.3213 49.5506 68.8323L49.5365 68.7868C49.4884 68.6318 49.4135 68.5928 49.3267 68.5478C49.2545 68.5108 49.1741 68.4688 49.094 68.3528C48.6446 67.7213 48.0528 67.2038 47.3665 66.8433C47.045 66.7303 47.76 67.6773 48.01 67.9433C48.618 68.5963 48.6879 68.9608 48.7888 69.4868C48.8234 69.6673 48.8616 69.8673 48.9265 70.1038C49.2194 71.1713 49.7876 71.4973 50.1615 71.7118ZM85.516 85.5173C85.6875 85.1418 85.7835 84.7358 85.798 84.3233V84.3238C85.817 83.5513 85.8915 83.3433 85.8205 83.2198C85.7855 83.1593 85.715 83.1188 85.5855 83.0418C81.762 80.7763 76.901 81.8653 74.062 87.4518C73.663 88.2978 73.406 89.2038 73.3025 90.1333C73.2835 90.1838 73.284 90.2398 73.3045 90.2898C73.3245 90.3403 73.3625 90.3813 73.411 90.4048C73.775 90.6688 74.162 90.8993 74.567 91.0938C75.533 91.4893 75.913 91.3263 76.397 91.1183C76.5615 91.0478 76.738 90.9718 76.954 90.9113C77.3465 90.8013 77.705 90.8533 78.082 90.9073C78.876 91.0223 79.75 91.1488 81.1915 89.7948C81.4945 89.5103 81.534 89.3413 81.5675 89.1958C81.6305 88.9253 81.6745 88.7353 83.3545 88.0358C83.7345 87.8778 83.784 87.7138 83.8625 87.4518C83.8765 87.4063 83.891 87.3583 83.908 87.3068C84.0945 86.7503 84.443 86.5123 84.7815 86.2813C85.069 86.0853 85.349 85.8943 85.516 85.5173Z" fill="#A28AE8"/>
<path d="M9.40696 49.022C9.98796 50.4265 13.4995 55.684 14.672 57.6165C15.0506 58.2805 15.468 58.921 15.922 59.536C16.539 60.21 16.822 60.3255 17.404 60.2155C18.3335 60.039 23.22 56.9055 23.609 56.1535C23.9805 55.436 23.5195 55.189 20.145 48.8275C16.89 42.69 17.3175 42.8375 13.645 44.286C12.3276 44.8955 11.048 45.5834 9.81296 46.346C8.88746 46.9205 8.95496 47.9295 9.40696 49.022ZM10.822 46.566C11.2775 46.2945 11.2755 46.283 11.69 46.604C11.8126 46.7194 11.9688 46.7929 12.1359 46.814C12.3029 46.8351 12.4724 46.8027 12.62 46.7215C14.1475 45.9395 15.067 45.775 14.7905 44.932C14.7736 44.8638 14.7747 44.7925 14.7937 44.7249C14.8128 44.6573 14.849 44.5958 14.899 44.5465C16.6875 43.7145 16.716 43.9875 19.388 48.894C21.7815 53.2875 22.594 54.6985 22.8195 55.3235C22.937 55.649 22.9865 55.867 22.33 56.4085C20.9427 57.4885 19.4521 58.429 17.88 59.216C17.149 59.516 16.735 58.9445 16.29 58.3215C15.117 56.679 14.246 55.284 13.614 54.187C9.58096 47.183 9.30246 47.4725 10.822 46.566Z" fill="#A28AE8"/>
<path d="M17.8807 35.8119C17.7067 35.7819 17.7587 35.6439 17.7722 35.5039C18.5897 27.0174 17.8807 25.3644 18.4112 25.4239C19.1467 25.5064 18.4532 35.9124 17.8807 35.8119Z" fill="#A28AE8"/>
<path d="M25.5059 48.7481C25.5634 48.7036 25.5989 48.6516 25.6444 48.6396C25.9476 48.5579 26.2587 48.5092 26.5724 48.4941C27.3004 48.5221 35.9289 48.9076 35.8669 49.6246C35.8419 49.9101 35.0129 49.6391 34.1879 49.5631C25.1679 48.7301 25.8344 49.2296 25.5059 48.7481Z" fill="#A28AE8"/>
<path d="M28.2195 37.0178C23.8695 41.2493 24.194 41.4398 23.98 40.7268C25.7975 38.4768 30.115 34.2913 31.3655 33.7533C31.4035 33.7373 31.5525 33.8563 31.498 33.9283C31.4768 33.956 31.4573 33.9848 31.4395 34.0148C31.403 34.0203 31.019 34.2958 28.2195 37.0178Z" fill="#A28AE8"/>
<path d="M6.37521 34.1233C4.9492 31.8018 4.1287 30.7458 4.0292 30.3513C3.5167 28.3238 9.92571 38.4013 9.42921 39.1793C8.75821 38.4393 9.65571 39.4643 6.37521 34.1233Z" fill="#A28AE8"/>
<path d="M13.6481 47.3258C14.1846 47.4213 15.2261 47.6958 15.7721 47.8378C16.1661 47.9973 16.1896 48.0938 15.9281 48.3953C15.4536 48.9453 15.3316 48.8453 15.6546 49.1333C19.6171 52.6868 19.6006 52.5468 18.6431 52.7143C17.0636 52.9913 17.5931 52.6313 20.0746 55.5523C20.5096 56.0643 19.8696 56.4863 19.5321 56.5093C19.3321 56.5228 19.1351 56.2258 19.0646 56.1423C15.3646 51.7613 15.1676 52.0773 16.8211 51.8823C16.9676 51.8648 17.0371 51.7573 16.8106 51.5133C15.0656 49.6353 15.2576 49.8083 15.0106 49.6133C14.4336 49.1518 13.8881 50.8708 13.6541 49.5133C13.2776 47.3188 13.1501 47.2368 13.6481 47.3258Z" fill="#A28AE8"/>
<path d="M44.5251 19.4831C43.7856 20.1006 41.9571 21.4151 42.5521 21.7066C42.7236 21.7901 42.8086 21.5536 43.1911 21.2421C44.9046 19.8466 44.7256 19.9646 44.7636 20.2131C44.8866 21.0131 44.7466 22.4771 45.0556 22.4181C45.1121 22.4076 45.1941 22.3801 45.2096 22.3391C45.4371 21.7301 45.1551 20.0346 45.2756 19.9916C45.3841 19.9531 47.0326 21.5806 47.2951 21.6621C47.5576 21.7436 47.6486 21.4871 47.5396 21.2886C47.5001 21.2166 46.3666 20.1686 46.3056 20.1121C45.4966 19.3681 45.4236 19.4516 45.5211 19.3526C45.8396 19.0306 48.1171 17.2656 47.8661 16.9426C47.6491 16.6636 46.1821 18.0886 45.2616 18.8731C45.2216 17.9201 45.1841 15.4581 45.1336 15.3256C45.0896 15.2096 44.8836 15.2171 44.8636 15.4906C44.7661 16.7461 44.8286 18.7756 44.7301 18.7741C44.6316 18.7726 43.2346 17.6046 42.6236 17.4016C42.5864 17.3865 42.5452 17.3845 42.5067 17.3958C42.4683 17.4071 42.4347 17.4311 42.4116 17.4639C42.3884 17.4966 42.377 17.5363 42.3792 17.5763C42.3814 17.6164 42.397 17.6545 42.4236 17.6846C42.9731 18.2341 44.7526 19.2921 44.5251 19.4831Z" fill="#A28AE8"/>
<path d="M21.3696 7.70377C21.5491 7.85727 21.3632 7.87527 20.7017 8.49027C19.8982 9.23677 19.8972 9.27627 19.8332 9.46727C19.7692 9.65827 19.9927 9.90127 20.1892 9.66477C20.3857 9.42827 21.5527 8.44627 21.6237 8.39627C21.6942 8.66027 21.5906 9.88427 21.7061 10.7103C21.7871 11.2898 22.1401 11.0908 22.1401 10.1868C22.1401 8.40177 22.1466 8.66777 22.1781 8.49427C22.3951 8.64427 22.1157 8.40177 23.0782 9.34427C23.5112 9.76627 24.0946 9.69427 23.1606 8.72477C22.1851 7.70877 22.2057 7.85627 22.3672 7.69127C22.7172 7.33627 23.5451 6.52677 24.0671 5.98777C24.5171 5.51977 24.3927 5.34727 24.2387 5.42577C23.0282 6.04327 22.1472 7.35527 22.1442 7.02077C22.1147 3.63527 22.0662 3.65327 21.8492 3.64927C21.5787 3.64477 21.6492 3.78177 21.6492 5.50277C21.6612 5.50277 21.6712 7.07827 21.6242 7.22277C21.5312 7.16077 19.9742 5.82577 19.6242 5.72277C19.3942 5.65627 19.2992 5.87927 19.4342 6.02527C19.5887 6.19227 19.6356 6.21577 21.3696 7.70377Z" fill="#A28AE8"/>
<path d="M19.0821 80.0984C20.5581 78.9154 20.4496 78.4199 20.2821 78.5414C18.9076 79.5329 19.1321 79.3834 18.5901 79.7969C18.3281 79.9969 18.5991 76.0623 18.0691 76.0583C17.7436 76.0583 17.8541 76.3838 17.9531 78.5258C17.9941 79.4083 17.9111 78.2938 18.0031 79.7403C18.0296 80.1648 16.7736 78.6229 15.3271 78.2799C15.3073 78.2739 15.2865 78.2723 15.2661 78.2748C15.2456 78.2778 15.2259 78.2849 15.2085 78.2959C15.191 78.3069 15.1761 78.3214 15.1647 78.3389C15.1533 78.3559 15.1458 78.3754 15.1426 78.3959C15.0926 78.6369 15.2426 78.6414 15.3846 78.7214C16.1936 79.1829 15.7026 78.8144 17.6306 80.2579C17.9086 80.4659 17.8166 80.4364 17.5006 80.7299C16.9801 81.2144 15.6896 82.2588 16.1346 82.4298C16.3896 82.5273 16.4306 82.3799 17.8881 81.0984C18.2451 80.7849 17.9551 82.2369 18.2881 83.5814C18.2969 83.6169 18.3177 83.6479 18.347 83.6699C18.3763 83.6914 18.4122 83.7023 18.4486 83.7003C18.7516 83.7178 18.7026 83.3959 18.5571 81.2719C18.5571 80.8719 18.4961 80.9574 19.3166 81.5674C19.8311 81.9494 19.9301 82.0013 20.1276 82.0173C20.3251 82.0333 20.3446 81.8003 20.2001 81.6573C20.1001 81.5573 20.0791 81.5269 18.7896 80.4864C18.6901 80.4049 18.7156 80.3924 19.0821 80.0984Z" fill="#A28AE8"/>
</svg>
