<svg width="100" height="101" viewBox="0 0 100 101" fill="none" xmlns="http://www.w3.org/2000/svg">
<path fill-rule="evenodd" clip-rule="evenodd" d="M95.517 32.707C94.9005 34.2967 94.13 35.8653 93.377 36.8744C92.563 38.1069 91.615 39.2452 90.55 40.2684C79.11 51.2019 61 46.0874 56.081 32.2629C54.016 26.4566 54.3695 18.8636 58.761 12.8798C56.603 12.1109 54.5115 11.2605 52.426 10.4126C45.7697 7.70643 39.1755 5.02545 30.694 5.09838C24.6628 5.13083 18.8424 7.32113 14.286 11.2729C4.93674 19.1623 6.69165 28.0165 8.19475 35.6004C8.74775 38.3906 9.2667 41.0089 9.186 43.3439C9.03975 47.5528 7.7467 50.6479 6.336 54.0249C4.5783 58.2319 2.63787 62.8769 2.50501 70.6584C2.34401 80.0879 6.082 85.9899 11.046 90.2779C19.0345 97.1779 30.712 97.9409 40.896 93.9984C52.3705 89.5564 57.2645 90.9954 62.6095 92.5674C65.8125 93.5089 69.177 94.4984 74.2165 94.2984C81.7405 93.9984 87.8445 90.5449 90.0815 85.9834C92.9545 80.1259 91.954 76.5109 90.9155 72.7599C90.017 69.5139 89.0905 66.1664 90.6215 61.1759C91.421 58.5699 92.51 56.4214 93.597 54.2774C94.7025 52.0974 95.805 49.9225 96.5985 47.2759C97.3745 44.6877 98.265 38.6758 95.517 32.707ZM34.0925 17.6294C36.18 19.5254 32.77 17.0844 31.705 15.9919C31.6651 15.9618 31.6152 15.9482 31.5655 15.9539C31.4515 15.9651 31.1465 19.2912 31.0434 20.4147L31.0433 20.4164C31.0226 20.6423 31.0101 20.7786 31.009 20.7804C30.6714 20.4747 30.8752 18.6037 31.0077 17.3873L31.0079 17.386C31.0557 16.9474 31.0941 16.5941 31.0945 16.4304C31.0945 16.2985 31.0191 16.3604 30.2974 16.9527C30.1733 17.0545 30.0302 17.172 29.865 17.3069C29.4373 17.6563 29.4089 17.7164 29.3481 17.8454C29.3351 17.8729 29.3206 17.9037 29.3005 17.9409C29.1555 18.2159 28.8655 17.8879 29.025 17.5594C29.1582 17.2849 29.2169 17.237 30.2224 16.414L30.2233 16.4133C30.4209 16.2516 30.6557 16.0594 30.934 15.8304L30.9608 15.8083C31.2346 15.5831 31.242 15.577 31.1295 15.4719C30.8267 15.1826 30.3965 14.7749 29.9704 14.3711L29.9696 14.3703L29.9688 14.3696C29.2169 13.6571 28.4784 12.9572 28.4765 12.9429C28.2265 11.9494 30.9445 14.6724 31.0365 14.7844C31.3034 15.1069 31.311 14.9823 31.333 14.6192C31.3398 14.5061 31.3481 14.3699 31.366 14.2169C31.5235 12.875 31.6082 12.009 31.6629 11.4487C31.7577 10.4791 31.7631 10.4245 31.9015 10.4024C32.1479 10.3635 31.8797 12.8172 31.7238 14.2444C31.679 14.6539 31.6435 14.979 31.632 15.1364C31.6208 15.2939 31.7324 15.2002 31.8535 15.0985L31.8625 15.0909C33.7907 13.4703 34.6804 12.5806 35.122 12.1391C35.459 11.802 35.535 11.7261 35.6125 11.7854C35.7275 11.8734 33.43 14.2799 32.021 15.5289C32.0121 15.5367 32.0032 15.5432 31.9949 15.5493C31.9792 15.5608 31.9659 15.5706 31.9598 15.5838C31.9242 15.6605 32.1347 15.8516 33.5728 17.1573L33.5746 17.159C33.7321 17.302 33.9043 17.4583 34.0925 17.6294ZM83.4375 77.2134C83.45 77.2079 86.089 75.7399 86.3 75.5284C86.341 75.4874 86.2855 75.4139 86.2455 75.4354C85.9555 75.5624 85.015 76.0109 84.227 76.3864L84.2205 76.3894L84.2195 76.3899C83.588 76.6909 83.0565 76.9444 83.0405 76.9459C83.0405 76.9459 83.042 76.9244 83.045 76.8859C83.0845 76.3629 83.3685 72.5939 83.2595 72.0524C83.248 72.0099 83.2245 71.9719 83.1915 71.9429C83.1585 71.9139 83.118 71.8949 83.0745 71.8889C82.8715 71.8964 82.8765 72.1559 82.8865 72.7254C82.894 73.1549 82.905 73.7614 82.8325 74.5689C82.701 76.0294 82.685 76.4544 82.6785 76.6304V76.6349C82.675 76.7324 82.674 76.7519 82.657 76.8369C82.624 76.9549 82.202 76.6434 81.7065 76.2774C81.004 75.7589 80.153 75.1304 80.054 75.4639C80.052 75.4704 80.05 75.4764 80.048 75.4819C80.045 75.4914 80.042 75.5004 80.0405 75.5089C80.0285 75.6014 80.195 75.7174 82.002 76.9764L82.3475 77.2174L82.3595 77.2254C82.3875 77.2439 82.4065 77.2564 82.408 77.2709C82.412 77.3029 82.334 77.3444 82.0875 77.4759C81.9 77.5759 81.614 77.7279 81.192 77.9674C79.668 78.8329 80.257 78.9829 80.3625 78.8769C80.4355 78.8039 81.9745 77.9694 81.9855 77.9694C82.6075 77.6339 82.636 77.6334 82.6255 77.7394C82.5915 78.0739 82.372 80.5144 82.7005 80.5894C82.7435 80.3404 82.744 80.3294 82.7445 80.2514C82.746 80.1374 82.749 79.8799 82.8915 78.5159C82.9135 78.3059 82.9195 78.1374 82.924 78.0079C82.9305 77.8149 82.9345 77.7084 82.9835 77.6799C83.0445 77.6449 83.1745 77.7299 83.4655 77.9204C83.6625 78.0489 83.933 78.2259 84.305 78.4459C84.351 78.4634 84.399 78.4734 84.448 78.4759C84.4455 78.4579 84.444 78.4424 84.443 78.4274C84.4355 78.3229 84.4315 78.2714 83.898 77.8294C83.721 77.6829 83.586 77.5809 83.4885 77.5074C83.345 77.3989 83.283 77.3519 83.2885 77.3149C83.2925 77.2864 83.337 77.2639 83.4155 77.2244L83.4375 77.2134ZM13.7315 66.5479C13.6983 66.6089 13.6543 66.6634 13.6015 66.7084C12.7069 67.3229 12.1509 67.6284 11.8447 67.7964C11.5189 67.9754 11.4758 67.9989 11.608 68.0744C11.6563 68.1019 11.7277 68.1404 11.8135 68.1859C12.2909 68.4414 13.2132 68.9344 13.0725 69.1744C13.0588 69.1979 13.0021 69.1694 12.5513 68.9429C12.2805 68.8069 11.8674 68.5989 11.236 68.2884C10.9657 68.1554 10.9576 68.3784 10.9439 68.7549C10.9426 68.7914 10.9412 68.8294 10.9395 68.8684C10.9184 69.3524 10.9068 69.6549 10.8996 69.8439C10.889 70.1214 10.8878 70.1539 10.8792 70.1559L10.8753 70.1554L10.8705 70.1549C10.8795 70.2379 10.8886 70.3109 10.8965 70.3739C10.9256 70.6069 10.9382 70.7074 10.8705 70.7159C10.5973 70.7459 10.593 68.9409 10.5921 68.5634L10.592 68.5314C9.5959 69.0919 9.3355 69.3339 9.2469 69.4164C9.20345 69.4564 9.2013 69.4584 9.174 69.4409C9.0395 69.3539 9.0285 69.0489 9.3145 68.8484C9.74725 68.5449 10.0568 68.3539 10.2619 68.2269C10.4921 68.0849 10.5908 68.0239 10.5846 67.9764C10.58 67.9409 10.5163 67.9129 10.4048 67.8639L10.385 67.8554C10.2882 67.8129 10.2508 67.7969 10.2381 67.7914C10.2567 67.7984 10.2354 67.7794 8.5075 66.9739C8.2825 66.8689 8.2225 66.2369 10.3805 67.4324C10.6251 67.5679 10.6241 67.5324 10.6166 67.2964C10.6134 67.1944 10.609 67.0554 10.6225 66.8769C10.6794 66.1209 10.6777 65.8059 10.6767 65.6064C10.6758 65.4394 10.6754 65.3534 10.71 65.1569C10.7107 65.1314 10.7165 65.1059 10.727 65.0829C10.7376 65.0594 10.7527 65.0384 10.7714 65.0209C10.7902 65.0034 10.8122 64.9899 10.8363 64.9814C10.8603 64.9724 10.8858 64.9684 10.9115 64.9699C10.937 64.9709 10.9621 64.9774 10.9852 64.9884C11.0083 64.9994 11.029 65.0149 11.0461 65.0339C11.0631 65.0529 11.0762 65.0754 11.0845 65.0994C11.0928 65.1239 11.0962 65.1494 11.0945 65.1749C11.0984 65.2714 11.079 65.3539 11.0639 65.4179C11.0518 65.4689 11.0424 65.5084 11.0495 65.5354C11.083 65.6594 11.0065 67.3184 10.9965 67.4599C10.9943 67.4919 10.9917 67.5214 10.9893 67.5479C10.9805 67.6479 10.9749 67.7109 11.0026 67.7339C11.0492 67.7734 11.1897 67.7004 11.5668 67.5049L11.5678 67.5044C11.7799 67.3949 12.0665 67.2464 12.453 67.0574C12.8628 66.8799 13.2632 66.6819 13.653 66.4639C13.705 66.4339 13.7535 66.5129 13.7315 66.5479ZM10.2328 67.7894C10.2328 67.7894 10.2361 67.7904 10.2381 67.7914C10.233 67.7894 10.2328 67.7894 10.2328 67.7894ZM38.671 33.3094C37.6498 31.6065 37.0499 29.6844 36.921 27.7029C36.9149 27.5932 36.7185 27.6271 36.5781 27.6513C36.5484 27.6564 36.5209 27.6611 36.4985 27.6639C31.5944 28.3556 26.8372 29.8488 22.4175 32.0839C21.5955 32.5126 21.5987 32.5334 21.629 32.7306C21.6311 32.744 21.6332 32.7583 21.6353 32.7736L21.637 32.7864C22.097 36.4754 24.8605 41.5364 27.109 44.4659L27.1141 44.4725C27.2717 44.6783 27.2976 44.7121 30.5195 43.0344C34.2518 41.1638 37.6697 38.7228 40.65 35.7994C40.7905 35.6559 40.777 35.5959 40.664 35.4949C39.9001 34.8638 39.2292 34.1281 38.671 33.3094ZM12.3635 47.4954C14.157 46.9788 17.397 45.8453 18.447 45.4454L18.5641 45.4007L18.6898 45.3527L18.6973 45.3498L18.7008 45.3484L18.7036 45.3473C19.5635 45.0186 19.8163 44.9219 19.9 45.0349C19.9295 45.0753 19.998 45.2019 19.694 45.3519C18.7755 45.8023 15.611 46.9109 13.723 47.5079C13.124 47.6974 12.065 47.8884 12.096 47.6854C12.109 47.6008 12.1975 47.5428 12.3635 47.4954ZM18.071 41.1914C17.891 41.1064 12.116 44.1804 11.9185 44.3119C11.602 44.5229 11.6276 44.6284 11.7185 44.7229C11.862 44.8721 12.2782 44.6256 12.5893 44.4414C12.6576 44.4009 12.7208 44.3635 12.7751 44.3339C13.6259 43.8693 14.3479 43.4766 14.9592 43.1441C18.1735 41.3958 18.3277 41.3119 18.071 41.1914ZM10.6965 41.8109C10.4155 41.4619 15.2775 38.3834 16.8235 37.7414C16.8515 37.73 16.8825 37.7282 16.9116 37.7362C16.9408 37.7442 16.9665 37.7616 16.9848 37.7856C17.0031 37.8097 17.0128 37.8391 17.0127 37.8694C17.0126 37.8996 17.0025 37.9289 16.984 37.9529C16.8004 38.0771 16.1931 38.4416 15.4224 38.9041C13.8015 39.8767 11.4584 41.2829 10.8145 41.8004C10.7745 41.8324 10.7315 41.8539 10.6965 41.8109ZM13.929 32.2679C14.0079 32.2952 14.127 32.2945 14.2903 32.2934C14.8729 32.2897 16.0189 32.2823 17.915 33.5364C17.979 33.5962 18.0606 33.6339 18.1477 33.6438C18.2348 33.6537 18.3227 33.6353 18.3985 33.5914C20.0315 32.5864 21.725 31.6836 23.4695 30.8879C23.7335 30.7649 23.8195 30.5914 23.6445 30.4949C22.9824 30.0685 22.2527 29.7577 21.4865 29.5759C20.8642 29.4265 20.2265 29.3503 19.5865 29.3489C18.0227 29.4532 16.5108 29.952 15.192 30.7989C14.7283 31.1269 14.2824 31.4795 13.8565 31.8554C13.8238 31.8825 13.7987 31.9178 13.784 31.9578C13.7694 31.9977 13.7655 32.0408 13.7729 32.0827C13.7803 32.1246 13.7986 32.1638 13.826 32.1963C13.8534 32.2288 13.8889 32.2535 13.929 32.2679ZM26.3657 44.3303C26.6976 44.7601 26.7641 44.846 26.572 44.9329C26.286 45.0624 24.6855 45.7089 24.451 45.7969C24.3997 45.8162 24.351 45.8349 24.3044 45.8528C23.7254 46.075 23.4819 46.1684 22.9955 45.7094C20.898 43.7309 17.964 38.0734 18.058 34.8444C18.0685 34.4799 18.0985 34.3904 18.2035 34.3299C19.053 33.8404 20.798 32.9204 20.811 32.9154C21.1218 32.7613 21.1666 32.9932 21.3002 33.6834C21.5083 34.7587 21.9316 36.9466 23.911 40.5214C25.1424 42.7462 25.9562 43.8 26.3657 44.3303ZM44.9775 28.1339C42.814 27.4939 41.122 27.2929 37.583 27.5459L37.5681 27.5469C37.3831 27.5593 37.3032 27.5647 37.383 28.0854C37.933 31.6054 39.533 33.9854 40.811 34.9854C40.8516 35.0171 40.8873 35.0453 40.9188 35.0702C41.15 35.2527 41.1605 35.2611 41.234 35.2039C42.5285 34.1934 44.894 30.8429 45.4425 28.9639C45.473 28.879 45.485 28.7886 45.4775 28.6987C45.4701 28.6088 45.4433 28.5215 45.3993 28.4428C45.3552 28.3642 45.2947 28.2959 45.222 28.2425C45.1492 28.1892 45.0659 28.1522 44.9775 28.1339ZM29.5551 44.1772C30.1169 43.8771 30.2512 43.8054 30.36 43.9664C30.419 44.0534 30.4 44.2314 30.3425 44.5509C30.0641 46.2432 29.2008 47.7842 27.903 48.9054C26.6799 49.8807 25.2709 50.5969 23.762 51.0099C23.3725 51.1059 23.1745 51.0424 23.0955 50.8924C22.9952 50.7044 23.0672 50.6339 23.2239 50.4814C23.2938 50.4134 23.3804 50.3289 23.476 50.2104C24.1395 49.3904 24.4395 48.4024 24.476 46.8104C24.4825 46.5279 24.5005 46.4254 24.7475 46.3304C27.5114 45.2687 28.8603 44.5483 29.5551 44.1772ZM20.519 64.2979C20.8018 63.7064 21.1162 63.1304 21.461 62.5729C22.4796 61.0749 23.8606 59.8589 25.4755 59.0379C26.1579 58.7484 26.872 58.5394 27.603 58.4159C28.5001 58.2614 29.4169 58.2614 30.314 58.4159C30.7773 58.4609 30.1005 59.2114 29.4416 59.9419C29.147 60.2689 28.8559 60.5914 28.672 60.8454C28.6415 60.8879 26.4515 63.7814 26.137 64.0814C25.9045 64.3014 25.8004 64.2814 25.5595 64.2359C25.4377 64.2129 25.281 64.1829 25.055 64.1744C22.5778 63.8589 21.6756 64.3084 21.1766 64.5574C21.0199 64.6354 20.903 64.6939 20.7895 64.7024C20.7401 64.7064 20.6905 64.6969 20.646 64.6754C20.6014 64.6534 20.5634 64.6204 20.5359 64.5794C20.5083 64.5379 20.4922 64.4904 20.4893 64.4409C20.4863 64.3914 20.4965 64.3419 20.519 64.2979ZM26.35 69.2069C26.3738 69.1794 26.4063 69.1609 26.4421 69.1544C26.4778 69.1479 26.5148 69.1544 26.5466 69.1719C26.5784 69.1894 26.6032 69.2174 26.6168 69.2509C26.6305 69.2849 26.6322 69.3219 26.6215 69.3569C26.4942 69.5524 25.8713 70.4404 25.0364 71.6304L25.0357 71.6314L25.0346 71.6329L25.0329 71.6354L25.031 71.6379L25.03 71.6394C23.0062 74.5244 19.7443 79.1739 19.268 80.0509C19.2395 80.1009 19.2035 80.1449 19.1465 80.1154C18.685 79.8759 25.0045 70.5969 26.35 69.2069ZM15.2295 83.7219C15.018 83.7034 15.0795 83.4874 15.1535 83.2654C15.6535 81.7864 14.8785 79.9724 14.1445 80.6244C13.314 81.3624 12.6485 83.0769 12.9625 83.7934C13.044 83.9794 13.0785 84.3324 12.8665 84.3989C12.5905 84.4854 12.5075 84.2934 12.392 84.0249C12.0285 83.1794 11.2895 83.0599 10.8505 83.4304C10.3811 83.9094 10.1015 84.5429 10.0635 85.2124C10.0635 85.4919 10.2417 85.6479 10.4174 85.8014C10.4616 85.8399 10.5056 85.8784 10.5465 85.9189C10.6025 85.9739 10.5255 86.0689 10.423 86.0334C10.1715 85.9794 9.9478 85.8364 9.79315 85.6309C9.63845 85.4254 9.56315 85.1709 9.581 84.9144C9.57195 84.5979 9.63735 84.2839 9.772 83.9974C10.122 83.0699 10.5525 82.7549 11.0945 82.6294C11.5091 82.5334 11.724 82.6329 12.1273 82.8199C12.1716 82.8404 12.2191 82.8624 12.2685 82.8849C12.3217 82.9094 12.3221 82.9079 12.3632 82.7414C12.3743 82.6964 12.3882 82.6399 12.407 82.5684C12.954 80.4544 14.591 78.7509 15.5625 80.7249C16.268 82.1569 15.6615 83.7589 15.2305 83.7219H15.2295ZM16.5592 88.7234C16.0485 89.3799 15.9214 89.5429 15.858 89.5034C15.308 89.1649 28.872 72.2899 29.2415 72.3064C29.7283 72.3279 29.1704 73.0154 26.0707 76.8354C24.1843 79.1599 21.3565 82.6444 17.25 87.8449H17.247C16.9633 88.2044 16.7393 88.4919 16.5616 88.7204L16.5602 88.7219L16.5592 88.7234ZM24.98 87.5384C24.753 88.2979 23.93 88.8494 23.272 89.2804C23.0588 89.4199 22.8792 89.5139 22.7432 89.5849C22.4192 89.7549 22.343 89.7944 22.6505 90.0084C22.7305 90.0639 22.8273 90.1244 22.9318 90.1894C23.7006 90.6679 24.8901 91.4074 22.92 92.5024C20.6105 93.7859 19.4985 93.1719 19.994 92.9904C23.9472 91.5429 23.7498 91.4049 22.5765 90.5834C22.461 90.5024 22.3355 90.4149 22.204 90.3189C22.1262 90.2729 22.0613 90.2079 22.0156 90.1299C21.9699 90.0519 21.9449 89.9634 21.9429 89.8729C21.9408 89.7824 21.9619 89.6929 22.0042 89.6129C22.0464 89.5329 22.1083 89.4654 22.184 89.4159C22.1996 89.4024 22.2627 89.3639 22.3584 89.3049C22.8364 89.0114 24.1272 88.2189 24.3705 87.5894C24.4835 87.2969 24.3925 87.1214 24.0745 87.1099C22.279 87.0444 20.6245 87.9264 20.3645 88.3919C20.3344 88.4349 20.2955 88.4709 20.2505 88.4979C20.026 88.6359 19.9335 88.2564 20.207 87.9209C21.333 86.5414 25.509 85.7734 24.981 87.5384H24.98ZM23.239 84.7634C21.874 85.6399 28.9225 78.9664 30.034 77.9339C30.6493 77.3619 30.9253 77.1404 31.1307 76.9759C31.2757 76.8599 31.3858 76.7714 31.555 76.6079C31.6839 76.4834 31.8006 76.3694 31.9067 76.2654C32.6593 75.5289 32.8727 75.3204 33.055 75.7629C32.7105 76.2914 24.434 83.9964 23.239 84.7634ZM26.2994 65.2249C26.2556 65.0819 26.2321 65.0044 26.4 64.7814C27.113 63.8314 28.387 62.2814 28.4 62.2694C28.6614 61.9654 28.8153 62.1929 29.2726 62.8679C29.9834 63.9174 31.4268 66.0489 35.145 68.9489C37.4617 70.7559 38.8051 71.5074 39.4817 71.8854C40.031 72.1929 40.1408 72.2539 39.975 72.4354C39.73 72.7034 37.9195 74.5039 37.6955 74.7054C37.5656 74.8344 37.4018 74.9244 37.2231 74.9644C37.0444 75.0044 36.8581 74.9929 36.6855 74.9314C33.7105 74.1984 27.3865 68.7974 26.312 65.2634C26.3081 65.2499 26.3032 65.2374 26.2994 65.2249ZM44.028 72.9774C44.1405 74.9029 42.272 78.1544 40.6255 79.4414L40.6062 79.4564C39.2473 80.5184 39.2244 80.5364 38.986 80.3414C38.8268 80.2119 38.8586 80.1234 38.9183 79.9574C38.9425 79.8894 38.9715 79.8089 38.994 79.7074C39.2985 78.6004 39.2617 77.4269 38.8885 76.3409C38.8356 76.1489 38.7698 75.9739 38.7091 75.8129C38.5466 75.3814 38.4209 75.0479 38.6775 74.7409C39.0108 74.3424 39.211 74.1469 39.4293 73.9339C39.5611 73.8054 39.6994 73.6704 39.8775 73.4804C40.011 73.3374 40.1397 73.1894 40.2683 73.0414C40.3921 72.8989 40.5158 72.7564 40.644 72.6184C40.7595 72.4949 40.8802 72.3759 41.001 72.2574C41.1248 72.1354 41.2488 72.0134 41.367 71.8864C41.8044 71.4164 42.1623 70.9644 42.459 70.5899C42.9384 69.9849 43.2579 69.5814 43.4945 69.6289C43.788 69.6874 44.053 71.4724 43.9825 71.6689C44.0361 72.1029 44.0507 72.5409 44.028 72.9774ZM43.3085 68.6214C40.615 71.8949 40.532 71.8954 40.261 71.7414C36.556 69.6289 31.311 65.5444 29.1505 61.8324C29.0005 61.5764 28.9955 61.5564 29.734 60.6564C33.4652 56.2169 37.9113 52.4314 42.889 49.4564C43.1289 49.2864 43.1524 49.3292 43.4365 49.8469C43.5545 50.0619 43.7174 50.3589 43.9595 50.7564C44.9812 52.2379 46.2497 53.5334 47.7095 54.5859C48.6548 55.2354 49.6971 55.7314 50.7975 56.0544C50.9115 56.1044 50.8315 56.2649 50.794 56.3404C50.7875 56.3539 50.782 56.3644 50.7795 56.3714C48.9188 60.8069 46.4006 64.9364 43.3095 68.6214H43.3085ZM51.1415 55.4414C51.0975 55.5229 51.0705 55.5134 50.8445 55.4349C50.7775 55.4114 50.6935 55.3824 50.586 55.3474C48.8755 54.7914 46.1335 53.1414 43.95 49.6539C43.619 49.1254 43.59 49.0594 43.7915 48.9539C47.4415 47.0789 49.3305 46.5239 51.9195 46.2249C52.0215 46.2042 52.127 46.2059 52.2285 46.2296C52.3295 46.2533 52.4245 46.2986 52.507 46.3624C52.5895 46.4261 52.657 46.5069 52.7055 46.5991C52.7535 46.6913 52.7815 46.7929 52.787 46.8969C53.039 49.1164 52.0645 53.7414 51.1415 55.4414ZM61.456 90.1199C62.46 88.4414 64.137 85.2479 64.656 84.1914L64.7195 84.0614L64.816 83.8644C65.214 83.0489 65.334 82.8034 65.4765 82.8354C65.5295 82.8464 65.673 82.8954 65.546 83.2284C65.164 84.2319 63.528 87.3454 62.508 89.1559C62.1845 89.7299 61.508 90.6344 61.387 90.4559C61.341 90.3869 61.363 90.2749 61.456 90.1199ZM61.3235 81.1949C61.1235 81.2589 58.8895 87.7694 58.8355 87.9949C58.7435 88.3839 58.8355 88.4449 58.975 88.4534C59.1955 88.4659 59.339 87.9639 59.444 87.5974C59.465 87.5234 59.4845 87.4544 59.503 87.3969C60.1155 85.4784 60.556 84.1429 60.861 83.2169C61.526 81.1994 61.551 81.1239 61.3235 81.1949ZM56.111 86.9414C55.641 86.8819 57.175 81.0414 57.8955 79.4414C57.9065 79.4104 57.928 79.3839 57.9565 79.3664C57.985 79.3494 58.0185 79.3429 58.051 79.3474C58.084 79.3519 58.114 79.3679 58.1365 79.3924C58.159 79.4169 58.172 79.4484 58.174 79.4814C58.1215 79.7064 57.921 80.4079 57.666 81.3004C57.1215 83.2074 56.3285 85.9864 56.1945 86.8499C56.186 86.9034 56.168 86.9489 56.111 86.9414ZM51.7565 77.3139C51.841 77.2759 51.9365 77.1869 52.0655 77.0664C52.521 76.6419 53.3995 75.8229 55.72 75.4364C55.9365 75.4004 56.0865 75.3204 56.13 75.1324C56.6625 73.1919 57.3165 71.2864 58.0875 69.4279C58.202 69.1444 58.1435 68.9489 57.9405 69.0049C57.127 69.1534 56.3445 69.4389 55.627 69.8504C55.042 70.1839 54.497 70.5834 54.0035 71.0414C52.878 72.2404 52.075 73.7054 51.67 75.2994C51.5415 75.8809 51.451 76.4704 51.3985 77.0639C51.395 77.1079 51.403 77.1519 51.422 77.1919C51.4405 77.2319 51.4695 77.2664 51.506 77.2914C51.542 77.3169 51.584 77.3324 51.628 77.3359C51.672 77.3399 51.7165 77.3324 51.7565 77.3139ZM71.4835 60.3364C72.435 60.5639 73.41 60.6769 74.388 60.6734C74.4475 60.6779 74.4995 60.6614 74.5465 60.6464C74.6455 60.6149 74.7215 60.5909 74.792 60.7874C74.5435 65.1919 73.668 69.5389 72.192 73.6964C70.9395 77.2274 70.895 77.2194 70.6385 77.1729C70.631 77.1714 70.6235 77.1704 70.616 77.1689C66.7975 76.5274 61.062 74.6934 58.069 72.1934C58.0505 72.1784 58.0335 72.1649 58.0175 72.1524C57.853 72.0254 57.822 72.0014 58.141 71.0934C59.9355 66.2164 62.5165 61.6664 65.781 57.6234C65.796 57.6054 65.813 57.5824 65.832 57.5574C65.9205 57.4399 66.0445 57.2749 66.131 57.3529C67.6865 58.7114 69.51 59.7279 71.4835 60.3364ZM70.5225 77.9804C70.607 77.7764 70.4945 77.7584 69.934 77.6664C69.241 77.5534 67.8625 77.3279 65.3225 76.5014C61.244 75.1739 59.3525 73.7989 58.423 73.1229C57.827 72.6894 57.6265 72.5439 57.4985 72.8829C57.4925 72.8969 56.8055 74.8494 56.511 75.8409C56.476 75.9594 56.516 76.0529 56.7675 76.3409C59.0075 78.8939 65.338 81.1349 68.333 81.1409C69.0395 81.1409 69.16 80.8924 69.4455 80.3049C69.467 80.2609 69.4895 80.2149 69.513 80.1669C69.6325 79.9269 70.3965 78.2839 70.5225 77.9804ZM66.521 56.7594C69.0605 54.0354 70.5035 52.9734 72.616 51.9169C72.697 51.8674 72.7875 51.8364 72.8815 51.8254C72.975 51.8139 73.0705 51.8234 73.1605 51.8524C73.2505 51.8814 73.3335 51.9299 73.403 51.9939C73.4725 52.0579 73.528 52.1359 73.5645 52.2234C74.471 54.0734 75.057 58.3289 74.8015 60.0234C74.789 60.1064 74.7635 60.1064 74.5435 60.1099C74.4795 60.1109 74.399 60.1119 74.2975 60.1154C72.6665 60.1719 69.812 59.6149 66.871 57.3064C66.4245 56.9559 66.3805 56.9094 66.521 56.7594ZM72.74 74.5269C72.5395 74.4799 72.486 74.6359 72.265 75.2799C71.994 76.0684 71.4725 77.5869 70.125 80.3574C70.0035 80.6074 70.064 80.6994 70.2605 80.9204C71.3715 82.1679 71.8475 83.1384 71.9285 84.2439C71.94 84.4029 71.935 84.5294 71.9305 84.6314C71.9205 84.8614 71.916 84.9674 72.125 85.0404C72.292 85.0984 72.492 85.0064 72.721 84.6524C73.58 83.2539 74.148 81.6964 74.391 80.0729C74.5815 78.2844 74.1405 76.4854 73.1445 74.9874C72.9555 74.7014 72.8455 74.5519 72.74 74.5269Z" fill="#5D34D6"/>
<path d="M97.191 22.3027C97.104 21.5704 96.973 20.8439 96.7995 20.1272C96.279 17.3646 95.1545 14.7511 93.5065 12.4737C86.8575 3.2297 74.426 1.2532 64.6405 6.7412C61.9455 8.28455 59.6345 10.4169 57.8795 12.979C56.1245 15.5411 54.971 18.4667 54.5055 21.5372C53.881 25.9467 54.3835 29.9872 55.4285 32.6292C56.944 36.4587 59.616 39.9877 61.5735 41.5837C63.3815 43.1373 65.437 44.3772 67.6545 45.2522C74.1205 47.8797 83.0605 47.3777 89.023 42.6407C92.261 40.0687 94.455 36.5687 95.7385 34.0452C98.5 27.5602 97.19 22.3102 97.191 22.3027ZM96.777 27.9117C96.753 29.8747 95.0085 34.6877 93.377 36.8742C92.563 38.1067 91.615 39.245 90.55 40.2682C79.11 51.2017 61 46.0872 56.081 32.2627C53.221 24.2187 55 12.7537 65.718 6.8792C75.2525 1.6527 87.079 4.7042 92.5 12.2002C94.384 14.694 95.6955 17.5722 96.341 20.6302C96.877 23.0181 97.024 25.4769 96.777 27.9117Z" fill="#A28AE8"/>
<path d="M77.8916 31.782C75.9026 31.0665 73.8736 33.195 73.4456 35.5205C73.0656 37.5845 73.8846 39.6095 76.1956 39.4705C76.7391 39.4705 78.3781 38.6015 79.2181 36.353C79.3461 35.8842 79.4366 35.4059 79.4881 34.9225C79.4886 34.4862 79.4466 34.0509 79.3636 33.6225C79.2531 33.361 78.9496 32.162 77.8916 31.782ZM79.1231 34.9435C78.9696 36.8135 77.7231 38.3935 76.8901 38.7435C76.7336 38.8378 76.5691 38.9181 76.3986 38.9835C75.7636 39.107 77.3486 37.8615 77.6031 35.253C77.9131 32.084 75.9401 32.545 76.3451 32.178C77.2171 31.385 79.3216 32.5285 79.1231 34.9415V34.9435Z" fill="#A28AE8"/>
<path d="M65.4679 26.0753C64.1734 24.6443 61.6969 24.8363 60.4489 28.0253C60.2249 28.5988 60.2684 28.5353 60.1924 29.5928C60.2979 31.0168 60.2364 30.4138 60.4164 30.9428C60.9694 32.5668 62.5629 33.1928 63.4864 32.7693C64.1094 32.4823 64.2679 32.5603 65.2199 31.5083C65.2874 31.4333 65.3019 31.3083 65.3699 31.2348C66.2349 30.3413 66.6929 27.4288 65.4679 26.0753ZM64.5944 25.9493C64.1964 26.0874 63.8434 26.3309 63.5729 26.6538C63.0499 27.2291 62.6854 27.9308 62.5164 28.6898C62.4904 28.8768 62.3694 29.0398 62.3539 29.2318C62.3169 29.6868 62.1709 30.8673 62.4934 31.4743C62.6434 31.7563 62.7389 32.0803 63.0459 32.2508C63.1584 32.3133 63.1314 32.4443 63.0459 32.4418C62.6724 32.4881 62.2934 32.4305 61.9504 32.2753C60.1744 31.2253 60.7354 28.4543 60.9224 28.1468C61.1724 27.6468 61.0224 27.6828 61.3954 27.1663C62.8684 24.7788 64.9264 25.7438 64.5944 25.9493Z" fill="#A28AE8"/>
<path d="M74.6826 14.1265C73.7901 13.559 70.9326 13.3765 68.3906 15.0135C66.3126 16.353 66.3431 17.9635 67.4166 18.7405C67.9786 19.1465 69.5201 19.419 71.1511 18.969C72.7821 18.519 73.3761 18.243 74.0731 17.769C75.8281 16.571 75.9076 14.905 74.6826 14.1265ZM67.6586 17.6915C67.4586 18.0025 67.5321 18.181 67.3416 17.9665C66.4176 16.9255 69.0761 14.2965 72.3916 14.194C73.6046 14.1565 74.8576 14.1685 75.0571 15.4175C75.1116 15.7378 75.0426 16.0667 74.8651 16.3385C74.7861 16.456 74.4256 16.1545 74.2406 16.0035C72.9336 14.937 68.7091 16.0645 67.6586 17.6915Z" fill="#A28AE8"/>
<path d="M83.5855 24.6693C84.8245 24.3528 84.913 23.1323 85.005 21.8603C84.8705 20.5018 84.5895 18.3103 82.9675 18.3978C81.6675 18.4658 80.87 22.5633 82.814 24.3823C83.037 24.5523 83.3055 24.6522 83.5855 24.6693ZM82.907 18.8168C83.3965 18.6278 83.974 19.1888 84.142 19.6348C85.214 22.4768 84.234 24.3718 83.508 24.2638C83.374 24.2438 83.3385 24.1938 83.4025 24.0738C83.881 23.1738 84.027 21.1163 83.2315 19.5418C83.0505 19.1838 82.7625 19.1468 82.7785 18.9078C82.7785 18.8168 82.855 18.8373 82.907 18.8168Z" fill="#A28AE8"/>
<path d="M62.9274 13.7173C62.9509 13.487 62.9234 13.2543 62.8469 13.0358C62.7369 12.8243 62.5564 12.6583 62.3364 12.5669C62.1164 12.4755 61.8714 12.4644 61.6439 12.5358C60.1089 12.9428 58.5674 15.4508 58.7239 16.8743C58.9909 19.3033 62.2269 17.4558 62.9274 13.7173ZM59.8204 16.7038C59.7389 16.9594 59.7094 17.2286 59.7329 17.4958C59.7024 17.6738 59.3279 17.5458 59.2044 17.2393C59.0264 16.7988 59.1724 15.5753 59.8989 14.5573C60.4859 13.7343 61.3839 12.8373 61.9324 12.9028C62.4909 12.9028 62.6324 13.2738 62.2779 13.4258C61.3434 13.8258 60.4879 15.1258 60.0404 16.0373C59.9664 16.1878 59.8814 16.5488 59.8204 16.7038Z" fill="#A28AE8"/>
<path d="M90.3817 29.8141C88.3962 29.5291 86.5962 33.1551 88.2002 34.1471C89.2272 34.7826 90.5127 33.7436 91.0642 32.6631C91.8397 31.1416 91.2887 29.9441 90.3817 29.8141ZM90.4422 32.9431C89.6297 33.9051 88.9002 34.0091 88.7887 33.9696C88.5667 33.8921 88.6042 33.7506 88.7387 33.6876C89.1732 33.4037 89.5267 33.0117 89.7642 32.5501C90.5597 31.2346 90.2192 30.4646 90.2142 30.3696C90.2082 30.2481 90.2467 30.2316 90.3702 30.2271C91.0412 30.2026 91.3737 31.8416 90.4422 32.9416V32.9431Z" fill="#A28AE8"/>
<path d="M93.7999 20.2695C92.7604 19.9805 91.2849 22.3695 91.9649 24.3585C92.7789 26.7415 95.1434 24.9535 95.0094 22.345C94.9554 21.311 94.7999 20.547 93.7999 20.2695ZM93.6394 24.9195C93.5474 24.9998 93.4354 25.0546 93.3159 25.0784C93.1959 25.1021 93.0719 25.0941 92.9559 25.055C92.4359 24.8715 93.0629 24.584 93.2294 23.9595C93.3839 23.3815 93.8079 21.998 93.2379 21.165C93.0329 20.865 93.0159 20.883 93.2379 20.7425C93.3549 20.688 93.4829 20.6603 93.6119 20.6616C93.7409 20.6629 93.8684 20.6931 93.9844 20.75C94.1004 20.8068 94.2019 20.8889 94.2824 20.9903C94.3624 21.0916 94.4189 21.2096 94.4474 21.3355C94.7779 22.6205 94.6389 24.078 93.6384 24.9205L93.6394 24.9195Z" fill="#A28AE8"/>
<path d="M85.1873 9.35768C85.0953 9.32568 83.7143 8.39868 82.8263 8.96168C82.4118 9.22468 82.6318 9.76768 82.6518 9.85318C82.8978 10.9092 85.6378 12.7902 86.7718 11.9662C87.6318 11.3417 86.0123 9.75318 85.1873 9.35768ZM86.3968 11.7192C86.1968 11.8337 86.1083 11.8617 85.7553 11.3737C85.0828 10.6272 84.2388 10.0554 83.2963 9.70768C83.1208 9.66568 82.8878 9.72968 82.9463 9.49618C83.0243 9.18718 83.1778 9.21868 83.5033 9.21118C84.1558 9.27288 84.7798 9.50763 85.3108 9.89118C85.9173 10.3212 87.0133 11.3662 86.3968 11.7192Z" fill="#A28AE8"/>
<path d="M83.5779 39.8951C83.2654 39.8806 82.9529 39.9292 82.6594 40.0382C82.3659 40.1471 82.0974 40.3141 81.8699 40.5291C81.7864 40.6593 81.7384 40.8087 81.7294 40.963C81.7209 41.1174 81.7519 41.2713 81.8199 41.4101C82.2104 41.9856 83.3614 42.0261 84.2404 41.8906C84.8644 41.7946 84.9824 41.6476 85.1214 41.3141C85.3829 40.6866 85.1654 39.8951 83.5779 39.8951ZM84.7854 40.7521C84.7019 41.7736 84.3534 40.4286 82.6164 40.9771C82.5109 41.0101 82.3334 41.1336 82.2164 41.1576C82.0549 41.1906 81.9894 40.8006 82.4799 40.4971C83.0239 40.2505 83.6329 40.1861 84.2164 40.3136C84.3819 40.3461 84.8159 40.5861 84.7854 40.7521Z" fill="#A28AE8"/>
<path d="M65.9499 38.0487C65.7114 38.0042 65.5359 38.0212 65.2999 38.3657C64.8064 39.0912 66.5064 41.4022 67.7299 41.2117C68.5969 41.0767 68.3964 40.0887 67.7844 39.2657C67.2624 38.5642 66.4214 37.9377 65.9499 38.0487ZM67.0194 40.1817C66.7874 39.7905 66.4919 39.4406 66.1454 39.1462C65.8844 38.8962 65.6419 38.9687 65.6564 38.6697C65.6639 38.5092 65.6934 38.4747 65.8624 38.4697C65.9834 38.4559 66.1059 38.4665 66.2229 38.5008C66.3399 38.5352 66.4484 38.5926 66.5429 38.6697C67.1259 39.1877 67.2929 38.9897 67.9159 40.4487C68.0739 40.8172 67.4279 41.0487 67.2824 40.6327C67.2044 40.4765 67.1159 40.3259 67.0174 40.1817H67.0194Z" fill="#A28AE8"/>
<path d="M73.8926 7.69169C74.1041 7.79669 73.9966 7.78819 74.8896 7.85219C78.2961 8.09619 76.8156 4.51566 73.8841 6.29814C73.6866 6.42694 73.5136 6.59004 73.3736 6.77969C73.3356 6.96869 73.3671 7.16509 73.4626 7.33264C73.5581 7.50019 73.7106 7.62769 73.8926 7.69169ZM76.3601 6.50419C76.5441 6.66569 76.4406 6.84769 76.2851 7.00419C76.0001 7.29169 76.1001 6.99169 75.5501 6.94169C74.2601 6.82319 74.5001 7.45919 74.1681 7.34169C73.1681 6.98369 74.1241 6.36169 75.1266 6.26119C75.9061 6.18069 76.0921 6.26869 76.3601 6.50469V6.50419Z" fill="#A28AE8"/>
<path d="M75.424 23.8287C75.0875 23.9447 74.7905 24.1526 74.5665 24.4287C74.4075 24.6488 74.2995 24.9014 74.2495 25.1682C74.1615 25.4627 74.3535 25.6977 74.5495 25.9077C74.684 26.0502 74.894 26.0537 75.1685 26.1022C75.4615 26.1095 75.7525 26.0516 76.0205 25.9327C76.289 25.8138 76.527 25.6369 76.7185 25.4147C77.081 25.1277 77.313 24.4107 77.0355 24.0847C76.8335 23.8689 76.5655 23.7265 76.2735 23.6801C75.982 23.6338 75.683 23.686 75.424 23.8287ZM76.692 24.4962C76.692 25.1207 76.1835 24.4852 75.424 25.0317C75.0025 25.3352 74.9455 25.6277 74.8135 25.5597C74.775 25.5395 74.7425 25.5093 74.7195 25.4721C74.697 25.4349 74.685 25.3923 74.6845 25.3487C74.6725 25.1096 74.738 24.8731 74.8715 24.6742C75.0045 24.4753 75.1985 24.3247 75.424 24.2447C76.1925 23.8447 76.781 24.1447 76.697 24.4947L76.692 24.4962Z" fill="#A28AE8"/>
<path d="M35.8829 56.224C35.1299 57.105 34.6412 58.181 34.4734 59.3275C34.3056 60.474 34.4655 61.6449 34.9346 62.7044C35.4036 63.7645 36.1628 64.67 37.1244 65.3165C38.0861 65.9635 39.211 66.3249 40.3694 66.3599C41.1705 66.3874 41.9692 66.2564 42.7194 65.9745C43.8356 65.552 44.8051 64.8145 45.5103 63.8515C46.2155 62.8885 46.6259 61.7415 46.6919 60.55C47.0369 54.7535 39.6969 51.7659 35.8829 56.224ZM46.3119 61.32C46.153 62.1715 45.8077 62.9775 45.3007 63.68C44.7937 64.3825 44.1376 64.964 43.3794 65.383C42.4549 65.878 41.419 66.128 40.3704 66.1095C34.2434 65.572 32.7999 58.4225 37.2829 55.3345C41.5164 52.418 47.2374 56.156 46.3119 61.32Z" fill="#A28AE8"/>
<path fill-rule="evenodd" clip-rule="evenodd" d="M35.6787 61.3189C35.8666 62.1499 36.2694 62.9169 36.8467 63.5434C37.4241 64.1699 38.1558 64.6344 38.9687 64.8894C43.6272 66.4019 47.4502 60.7234 44.2007 56.9799C40.9742 53.2629 34.5577 56.0759 35.6787 61.3189ZM41.3128 58.8744L41.313 58.8739C41.7154 58.3194 42.731 56.9194 42.7652 56.8564C42.8652 56.6699 38.6297 58.4734 38.8417 58.5519C38.8616 58.5594 39.0885 58.6024 39.3287 58.6479H39.329C39.5348 58.6869 39.7503 58.7274 39.8537 58.7494C40.5795 58.9064 40.8757 59.0324 41.011 59.0904C41.1071 59.1314 41.1221 59.1379 41.1522 59.0959C41.1603 59.0844 41.2199 59.0024 41.3119 58.8754L41.3128 58.8744ZM40.6908 59.7934C40.4422 60.1599 40.1112 60.6479 39.9276 60.9414C39.8989 60.9874 39.8756 61.0294 39.8558 61.0654C39.744 61.2669 39.7421 61.2699 39.4996 60.6714C39.1396 59.7804 38.9313 59.2939 38.8184 59.0304C38.7161 58.7914 38.6919 58.7354 38.704 58.7259C38.7077 58.7229 38.7149 58.7244 38.7243 58.7269C38.7305 58.7279 38.7378 58.7299 38.7456 58.7304C41.055 59.2519 41.0523 59.2559 40.9792 59.3649L40.9726 59.3749C40.918 59.4584 40.8145 59.6109 40.6908 59.7934ZM40.5497 60.4449C40.3384 60.7489 40.2154 60.9219 40.1385 61.0299C40.072 61.1234 40.04 61.1684 40.0152 61.2079C39.9479 61.3149 40.1029 61.3219 40.5362 61.3404C40.9114 61.3564 41.4955 61.3819 42.3247 61.4889C42.3284 61.4889 42.335 61.4894 42.3434 61.4904C42.3931 61.4949 42.507 61.5054 42.4797 61.4339C42.4017 61.2724 42.1257 60.7984 41.3107 59.5144L41.3055 59.5064C41.2834 59.4724 41.2687 59.4494 41.2509 59.4469C41.216 59.4414 41.1691 59.5134 41.0302 59.7274C40.9291 59.8834 40.7792 60.1139 40.5497 60.4449ZM42.8706 57.0329C42.8681 57.2359 42.8011 58.1354 42.7831 58.3639C42.7215 59.1504 42.6814 59.7379 42.6521 60.1679C42.5787 61.2439 42.5727 61.3309 42.4651 61.0724C42.2005 60.4509 41.8503 59.8689 41.4246 59.3444L41.4176 59.3354C41.3938 59.3059 41.3769 59.2849 41.3712 59.2609C41.3573 59.2029 41.4102 59.1289 41.5917 58.8744C41.6399 58.8069 41.6972 58.7264 41.7646 58.6304C42.2371 57.9579 42.5143 57.5289 42.6731 57.2829C42.829 57.0414 42.8706 56.9769 42.8706 57.0329ZM38.7232 60.5499C38.6672 60.4054 38.6028 60.2359 38.5401 60.0709C38.4389 59.8044 38.3418 59.5489 38.2912 59.4289C38.2145 59.2054 38.2139 61.8794 38.2137 62.8784V62.8789C38.2137 63.0584 38.2136 63.1844 38.2132 63.2289C38.2132 63.3244 38.2791 63.2174 38.4365 62.9619C38.5858 62.7194 38.8174 62.3429 39.1532 61.8789C39.1584 61.8719 39.1633 61.8654 39.1679 61.8589C39.1854 61.8359 39.1981 61.8189 39.2043 61.8004C39.2205 61.7509 39.1933 61.6874 39.0952 61.4589C39.0187 61.2804 38.899 61.0014 38.7232 60.5499ZM39.1277 62.2704C39.3702 61.9224 39.3997 61.8939 39.5497 61.8824C39.6859 61.8899 40.3464 61.9274 40.9318 61.9604C41.4339 61.9889 41.8808 62.0144 41.8942 62.0149C42.1117 62.0644 38.2572 63.4999 38.3647 63.3269C38.4108 63.2529 38.4324 63.2254 38.4791 63.1654C38.5556 63.0679 38.6993 62.8844 39.1277 62.2704Z" fill="#A28AE8"/>
<path d="M62.8356 64.3913C62.4116 65.0378 62.1341 65.7693 62.0216 66.5338C61.9096 67.2988 61.9651 68.0793 62.1856 68.8203C62.4056 69.5613 62.7846 70.2458 63.2961 70.8253C63.8076 71.4048 64.4391 71.8663 65.1471 72.1768C65.8551 72.4873 66.6226 72.6398 67.3951 72.6233C68.1681 72.6068 68.9281 72.4223 69.6226 72.0823C70.3171 71.7423 70.9286 71.2548 71.4156 70.6543C71.9021 70.0538 72.2521 69.3538 72.4406 68.6043C73.8766 63.0638 66.4761 59.3143 62.8356 64.3913ZM64.1656 71.3263C63.4831 70.7963 62.9461 70.1018 62.6056 69.3078C62.2651 68.5138 62.1316 67.6463 62.2186 66.7863C62.3051 65.9268 62.6086 65.1033 63.1006 64.3928C63.5926 63.6828 64.2571 63.1093 65.0316 62.7263C65.8061 62.3433 66.6656 62.1633 67.5286 62.2028C68.3916 62.2428 69.2306 62.5013 69.9661 62.9543C70.7021 63.4073 71.3106 64.0398 71.7351 64.7923C72.1596 65.5453 72.3856 66.3933 72.3926 67.2573C72.4036 68.2163 72.1436 69.1593 71.6426 69.9773C71.1411 70.7948 70.4186 71.4543 69.5591 71.8798C68.6991 72.3048 67.7366 72.4783 66.7826 72.3803C65.8281 72.2823 64.9211 71.9168 64.1656 71.3258V71.3263Z" fill="#A28AE8"/>
<path fill-rule="evenodd" clip-rule="evenodd" d="M71.2664 68.7171C71.4644 68.1591 71.5449 67.5666 71.5034 66.9761C71.4354 65.9056 70.9684 64.8996 70.1939 64.1576C69.4199 63.4151 68.3954 62.9906 67.3229 62.9681C66.2244 62.9501 65.1594 63.3496 64.3439 64.0856C63.5279 64.8221 63.0219 65.8401 62.9279 66.9351C62.8804 67.5251 62.9554 68.1186 63.1479 68.6786C63.3409 69.2381 63.6469 69.7521 64.0474 70.1881C64.4479 70.6241 64.9339 70.9726 65.4754 71.2121C66.0164 71.4516 66.6014 71.5766 67.1934 71.5791C67.7854 71.5821 68.3714 71.4626 68.9154 71.2286C69.4589 70.9941 69.9484 70.6501 70.3529 70.2181C70.7574 69.7861 71.0684 69.2751 71.2664 68.7171ZM66.1544 70.2006C66.4589 70.1151 67.1144 69.9301 68.5284 69.4266C68.5339 69.4246 68.5394 69.4231 68.5444 69.4221C68.5524 69.4201 68.5594 69.4181 68.5639 69.4141C68.5854 69.3946 68.5589 69.3216 68.4074 68.9001C68.3694 68.7951 68.3239 68.6681 68.2694 68.5151C68.2649 68.5026 68.2609 68.4906 68.2574 68.4806V68.4801C68.2389 68.4271 68.2304 68.4016 68.2139 68.3946C68.1994 68.3886 68.1789 68.3966 68.1399 68.4116C68.1249 68.4171 68.1069 68.4241 68.0859 68.4316C67.6254 68.5926 67.3054 68.7116 67.0819 68.7951C66.7039 68.9361 66.6004 68.9746 66.5559 68.9391C66.5389 68.9256 66.5309 68.9016 66.5194 68.8691C66.5164 68.8606 66.5134 68.8521 66.5099 68.8426C66.3364 68.3086 66.1314 67.7851 65.8969 67.2751C65.8699 67.2191 65.8694 67.2191 65.7169 67.2826C65.6729 67.3011 65.6169 67.3241 65.5439 67.3531C65.3959 67.4111 65.2794 67.4561 65.1879 67.4916C64.9254 67.5931 64.8679 67.6151 64.8644 67.6441C64.8634 67.6521 64.8669 67.6606 64.8709 67.6716C64.8734 67.6781 64.8759 67.6856 64.8784 67.6941C65.1849 68.5706 65.5349 69.4311 65.9284 70.2721C65.9629 70.2551 66.0284 70.2366 66.1544 70.2006ZM69.0234 67.1406C68.8239 67.2181 68.7714 67.2386 68.7499 67.2211C68.7424 67.2146 68.7389 67.2031 68.7339 67.1876C68.7319 67.1811 68.7299 67.1741 68.7269 67.1661C68.5284 66.6516 68.3949 66.2956 68.3029 66.0501C68.1349 65.6031 68.1044 65.5226 68.0724 65.5216C68.0654 65.5216 68.0579 65.5251 68.0494 65.5296C68.0444 65.5321 68.0394 65.5346 68.0339 65.5371C67.8649 65.6066 67.7359 65.6601 67.6319 65.7031L67.6304 65.7036C67.4504 65.7781 67.3449 65.8221 67.2394 65.8641C67.0904 65.9236 66.9409 65.9806 66.5814 66.1176L66.4599 66.1636L66.4519 66.1666C66.4384 66.1721 66.4284 66.1761 66.4184 66.1746C66.3869 66.1706 66.3629 66.1076 66.2604 65.8376C66.2194 65.7291 66.1654 65.5876 66.0934 65.4031C66.0774 65.3626 66.0629 65.3306 66.0514 65.3051C66.0054 65.2031 66.0029 65.1971 66.1304 65.1486C67.6179 64.5786 67.9124 64.4836 68.3844 64.3311C68.4504 64.3096 68.5199 64.2871 68.5969 64.2621H68.5974C68.6499 64.2536 68.6519 64.2531 68.9224 64.7816C69.2514 65.4311 69.5364 66.1016 69.7759 66.7891C69.7774 66.7946 69.7794 66.7996 69.7809 66.8041C69.7849 66.8171 69.7884 66.8266 69.7864 66.8351C69.7819 66.8581 69.7394 66.8736 69.5799 66.9316C69.5159 66.9546 69.4334 66.9846 69.3269 67.0246C69.1994 67.0726 69.1004 67.1106 69.0234 67.1406ZM64.8934 66.7371C65.0374 66.6821 65.2474 66.6016 65.5569 66.4916C65.5609 66.4901 65.5649 66.4891 65.5684 66.4881C65.5794 66.4846 65.5879 66.4816 65.5934 66.4761C65.6134 66.4541 65.5869 66.3886 65.4584 66.0761L65.4094 65.9561C65.2349 65.5296 65.2214 65.5121 65.1714 65.5196C64.8809 65.6206 64.5984 65.7431 64.3264 65.8861L64.3204 65.8891C64.3029 65.8981 64.2909 65.9041 64.2844 65.9136C64.2694 65.9361 64.2844 65.9781 64.3344 66.1161C64.3789 66.2406 64.4519 66.4441 64.5569 66.7821C64.5804 66.8566 64.5854 66.8546 64.8934 66.7371ZM69.4474 69.0656C69.3069 68.7646 69.1839 68.4556 69.0789 68.1401C69.0774 68.1361 69.0754 68.1326 69.0739 68.1291C69.0524 68.0851 69.0519 68.0841 69.5539 67.8901L69.6769 67.8421C70.0724 67.6866 70.0769 67.6851 70.0979 67.7476C70.2034 68.0571 70.3104 68.4076 70.3479 68.5476C70.3509 68.5581 70.3549 68.5676 70.3579 68.5766C70.3924 68.6656 70.3924 68.6656 69.4474 69.0656ZM67.5549 66.6331C67.5269 66.6151 67.4674 66.6451 67.2429 66.7256C66.7919 66.8876 66.6914 66.9096 66.6844 66.9486C66.6824 66.9591 66.6874 66.9711 66.6944 66.9876C66.6944 66.9881 66.6959 66.9911 66.6979 66.9971C66.7334 67.0891 67.0169 67.8256 67.0569 67.8836C67.0689 67.8766 67.0744 67.8726 67.0799 67.8696C67.0999 67.8571 67.1244 67.8511 67.4974 67.7131C67.5894 67.6791 67.6629 67.6531 67.7209 67.6326C67.9399 67.5546 67.9454 67.5526 67.9199 67.5021C67.8909 67.4441 67.8719 67.3961 67.8159 67.2571C67.7704 67.1436 67.7009 66.9696 67.5819 66.6801C67.5719 66.6566 67.5664 66.6406 67.5549 66.6331Z" fill="#A28AE8"/>
<path d="M31.0279 30.2119C30.1838 30.2198 29.3558 30.4438 28.6228 30.8626C27.8899 31.2813 27.2765 31.8809 26.8411 32.6041C26.4057 33.3273 26.1629 34.15 26.1358 34.9938C26.1088 35.8375 26.2983 36.674 26.6864 37.4237C27.0745 38.1733 27.6482 38.811 28.3528 39.2759C29.0574 39.7408 29.8693 40.0175 30.7112 40.0794C31.5531 40.1414 32.3968 39.9866 33.1618 39.6298C33.9269 39.273 34.5877 38.7262 35.0814 38.0414C35.6331 37.3047 35.9659 36.4274 36.0418 35.5101C36.1176 34.5928 35.9334 33.6728 35.5102 32.8554C35.087 32.038 34.4421 31.3565 33.6493 30.889C32.8565 30.4214 31.948 30.1868 31.0279 30.2119ZM33.7584 39.0159C33.1502 39.44 32.4501 39.7137 31.7155 39.8147C30.981 39.9157 30.233 39.8411 29.5329 39.597C25.7709 38.303 25.2199 33.0885 28.6804 31.092C29.7301 30.4731 30.9789 30.2853 32.1642 30.568C33.3495 30.8506 34.3791 31.5818 35.0366 32.6078C35.6941 33.6337 35.9282 34.8746 35.6899 36.0696C35.4515 37.2646 34.7592 38.3207 33.7584 39.0159Z" fill="#A28AE8"/>
<path fill-rule="evenodd" clip-rule="evenodd" d="M29.4276 31.496C29.9591 31.2636 30.5353 31.1514 31.1151 31.1671C32.1509 31.2004 33.1326 31.6377 33.85 32.3855C34.5675 33.1334 34.9638 34.1323 34.9541 35.1686C34.9546 35.9743 34.7031 36.76 34.2348 37.4157C33.7665 38.0713 33.1049 38.5641 32.3426 38.8251C31.7967 39.0213 31.2143 39.0947 30.6368 39.0402C30.0594 38.9856 29.501 38.8044 29.0015 38.5094C28.5021 38.2145 28.0738 37.8131 27.7471 37.3337C27.4205 36.8544 27.2035 36.3089 27.1117 35.7362C27.0199 35.1634 27.0555 34.5775 27.216 34.0201C27.3764 33.4627 27.6578 32.9475 28.0401 32.5112C28.4223 32.0749 28.8961 31.7283 29.4276 31.496ZM33.0101 33.9836C33.2311 34.1558 33.4092 34.3767 33.5306 34.6291C33.7761 35.2026 33.1261 36.0321 32.5231 35.8766C32.4611 35.8601 32.3996 35.9101 32.4496 35.9916C32.528 36.1195 32.5776 36.2629 32.5953 36.4118C32.6129 36.5608 32.598 36.7118 32.5517 36.8544C32.5054 36.9971 32.4287 37.128 32.3269 37.2382C32.2251 37.3483 32.1007 37.4351 31.9621 37.4926C31.4526 37.7041 30.9861 37.7026 30.2651 37.0751C30.1864 37.0067 30.1782 37.017 30.1154 37.0962C30.0901 37.1282 30.0559 37.1714 30.0046 37.2251C29.6784 37.5666 29.622 37.6356 29.5867 37.6261C29.578 37.6238 29.5705 37.6166 29.5606 37.6076C29.2291 37.3155 29.163 37.2751 29.1685 37.251C29.1699 37.2446 29.1766 37.2393 29.1846 37.2306C29.574 36.8063 29.7047 36.6812 29.6835 36.5922C29.6718 36.5432 29.6141 36.5051 29.5281 36.4341C29.5108 36.4195 29.4995 36.4083 29.4864 36.4056C29.4505 36.3983 29.4016 36.4552 29.1826 36.6841C29.0958 36.7749 29.0352 36.841 28.992 36.8883C28.8864 37.0037 28.8841 37.0063 28.8536 36.9786C28.5993 36.7462 28.4817 36.6824 28.4794 36.6147C28.4768 36.5341 28.6377 36.4482 28.9266 36.0661C28.9479 36.0383 28.9626 36.0205 28.9642 36.0015C28.9686 35.9485 28.8703 35.8869 28.5266 35.5756C28.2058 35.2857 28.2065 35.2841 28.2212 35.2482C28.2215 35.2475 28.2218 35.2468 28.2221 35.2461C28.3387 35.0947 28.4628 34.9494 28.5941 34.8106C28.6107 34.7909 28.6185 34.7744 28.631 34.7694C28.6661 34.7552 28.7381 34.8324 29.1496 35.1851C29.1853 35.2148 29.204 35.2388 29.2258 35.2421C29.2911 35.2518 29.384 35.0749 30.0421 34.3036C30.4684 33.8043 30.7281 33.5442 30.8735 33.3986C31.0483 33.2235 31.0576 33.2142 30.9921 33.1536C30.9146 33.0821 30.8506 33.0246 30.7953 32.9749C30.7304 32.9166 30.6775 32.8691 30.6286 32.8221C30.5759 32.7717 30.5416 32.7452 30.5362 32.7137C30.5251 32.6498 30.6329 32.5652 30.9456 32.2166C30.9539 32.2068 30.9595 32.1988 30.967 32.1958C30.9952 32.1847 31.0513 32.2446 31.3851 32.5476C31.4334 32.5914 31.4754 32.6299 31.5121 32.6634C31.7323 32.865 31.7587 32.8892 31.8076 32.8476C31.8456 32.8152 32.0213 32.6237 32.1483 32.4851C32.2117 32.416 32.263 32.3601 32.2791 32.3436C32.3144 32.3076 32.3187 32.3113 32.4665 32.4391C32.5217 32.4868 32.5968 32.5519 32.7011 32.6386C32.7103 32.6466 32.7175 32.6519 32.7201 32.6589C32.7306 32.6873 32.6636 32.7444 32.3421 33.1386C32.2206 33.2861 32.2321 33.3281 32.2821 33.3781C32.3615 33.4566 32.403 33.5059 32.4485 33.51C32.5304 33.5173 32.6254 33.3778 32.9791 32.9981C33.0013 32.9749 33.0144 32.959 33.0305 32.9551C33.0727 32.9449 33.1351 33.0182 33.4346 33.2641C33.477 33.2992 33.471 33.3062 33.3114 33.4949C33.3071 33.5 33.3027 33.5052 33.2981 33.5106C33.0387 33.8175 32.9588 33.8839 32.9689 33.9308C32.9725 33.9475 32.9876 33.9618 33.0101 33.9836ZM29.9836 35.9116C30.2557 36.1924 30.5693 36.4297 30.9136 36.6151C31.0299 36.6728 31.162 36.6905 31.2894 36.6656C31.4167 36.6406 31.5323 36.5743 31.6182 36.4769C31.7041 36.3796 31.7555 36.2567 31.7644 36.1271C31.7734 35.9976 31.7393 35.8688 31.6676 35.7606C31.4476 35.4442 31.1733 35.1691 30.8576 34.9481C30.7516 34.8606 30.7446 34.8646 30.6366 34.9606C30.4396 35.1323 30.2625 35.3255 30.1086 35.5366C30.0921 35.5598 30.0769 35.5811 30.0628 35.6007C29.9068 35.8185 29.9006 35.8272 29.9836 35.9116ZM31.7111 34.9311C31.9476 35.0956 32.1461 35.1976 32.3881 35.1001C32.8636 34.7496 32.6426 34.3726 32.1991 33.9771C32.1345 33.9195 32.0834 33.8683 32.0408 33.8257C31.9029 33.6877 31.8547 33.6395 31.7321 33.7541C31.5448 33.9302 31.3747 34.1237 31.2241 34.3321C31.1556 34.4266 31.1651 34.4651 31.2336 34.5351C31.3798 34.682 31.5397 34.8146 31.7111 34.9311Z" fill="#A28AE8"/>
</svg>
