<svg width="101" height="101" viewBox="0 0 101 101" fill="none" xmlns="http://www.w3.org/2000/svg">
<path d="M55.1799 24.3229C55.5209 24.7291 55.1799 25.0552 54.7485 25C53.8207 24.8846 53.7454 24.358 53.2991 24.7091C53.0984 24.8796 52.9279 24.9799 52.7373 25.1153C52.4414 25.321 53.0483 25.336 53.4144 25.7272C53.916 26.2288 53.2088 26.7303 51.8396 26.0181C51.3079 25.7473 49.7531 27.2018 49.2415 26.4294C49.0259 26.1084 50.5054 25.4263 50.2797 25.341C48.2384 24.5436 45.8159 23.0439 44.226 22.2063C44.1357 22.1612 44.226 22.1462 43.0624 22.8182C42.7464 22.9988 41.949 22.7581 43.0273 21.6847C43.2079 21.5092 42.3903 21.2484 42.2148 20.802C42.1973 20.7245 42.2013 20.6437 42.2264 20.5684C42.2514 20.493 42.2966 20.4259 42.3569 20.3743C42.4173 20.3226 42.4907 20.2885 42.569 20.2755C42.6474 20.2625 42.7278 20.2711 42.8016 20.3005C43.8047 20.6716 43.9201 20.9776 44.2511 20.7218C44.878 20.2202 45.0787 20.2202 44.9182 20.145C44.1859 19.7387 44.0104 19.7036 44.0104 19.4177C44.0104 19.0014 44.5119 18.9563 44.8831 19.1018C45.7658 19.4328 45.9564 19.6986 46.2423 19.5331C47.2454 18.9513 49.1512 18.199 50.2547 18.7156C51.7593 19.4428 50.5807 20.9926 50.5506 21.128C50.7863 21.1631 53.5047 19.8892 54.8238 20.6265C56.1428 21.3637 55.4607 22.7229 54.4426 23.8063C54.7167 23.934 54.9662 24.1089 55.1799 24.3229ZM48.9005 23.1693C48.6748 23.2797 49.076 23.39 51.2427 24.5034C51.4433 24.6088 51.4082 24.5787 52.4765 23.7561C56.203 20.8722 53.3342 20.9826 48.9005 23.1693ZM48.6046 19.6936C47.5363 20.0096 45.1338 21.459 45.3044 21.5644C47.4961 22.6126 47.3406 22.5675 47.4861 22.4471C48.0155 22.0457 48.5182 21.6101 48.9907 21.1431C50.1744 19.9293 49.6478 19.3876 48.6196 19.6936H48.6046Z" fill="#5D34D6"/>
<path fill-rule="evenodd" clip-rule="evenodd" d="M63.618 21.8535C63.7419 22.011 63.7419 22.2657 63.7419 22.999C63.7278 22.999 63.7429 23.9168 63.7644 25.277C63.8226 28.9002 63.9309 35.6591 63.6867 36.5559C63.4891 37.2365 63.1295 37.4442 58.9816 39.8426C58.3928 40.1836 57.7278 40.5683 56.9759 41.0047C54.6688 42.3388 52.6075 43.4221 51.489 43.9688C51.4062 44.0089 51.3185 44.0541 51.2272 44.1012C50.7567 44.3435 50.186 44.6379 49.7035 44.5456C48.9662 44.4001 39.2311 38.853 37.6211 37.4637C36.6647 36.6251 36.5754 33.688 36.5308 32.2125C36.5283 32.1172 36.5257 32.0284 36.5227 31.9467C36.3974 28.3305 36.272 24.4836 36.7133 22.4774C36.8839 21.7201 47.1606 16.1278 49.2822 15.1498C49.4398 15.0769 49.6196 15.0679 49.7837 15.1247C54.4053 16.9489 58.8891 19.1045 63.2002 21.5746C63.4103 21.6935 63.5392 21.7537 63.618 21.854V21.8535ZM49.7286 15.5364C49.2019 15.3609 37.1848 22.5632 37.4155 22.7337C39.3665 24.1651 44.9463 26.7341 47.5904 27.9513C48.4937 28.3676 49.055 28.6254 49.0113 28.6269C49.3223 28.7874 49.4863 28.9128 49.6684 28.9529C50.2085 29.0723 50.9137 28.4413 56.1183 25.753C58.5709 24.4841 62.7036 22.192 62.7588 22.1218C62.7785 22.0948 62.7887 22.0621 62.7881 22.0287C62.7875 21.9953 62.776 21.963 62.7553 21.9367C62.7413 21.9195 62.7237 21.9057 62.7036 21.8961C61.9965 21.3895 50.9022 16.0932 49.7286 15.5364ZM49.2872 30.6381C49.0966 32.0575 48.896 42.891 49.8389 43.4527C50.2201 43.692 50.1699 42.6984 50.0546 40.4153C50.0034 39.3972 49.9392 38.1222 49.8941 36.5865C49.875 35.9013 49.8574 35.216 49.8414 34.5306C49.7897 32.4206 49.7461 30.603 49.6583 30.3974C49.6232 30.3221 49.3424 30.1968 49.2872 30.6381Z" fill="#A28AE8"/>
<path d="M21.2406 44.2999C21.5817 44.7062 21.2406 45.0322 20.8093 44.977C19.8814 44.8617 19.8062 44.335 19.3598 44.6861C19.1782 44.8316 18.9887 44.967 18.7931 45.0924C18.5022 45.298 19.109 45.3131 19.4752 45.7043C19.9767 46.2058 19.2595 46.7074 17.9003 45.9952C17.3687 45.7193 15.8138 47.1788 15.2973 46.4064C15.0866 46.0854 16.5662 45.4033 16.3405 45.3181C14.2992 44.5206 11.8767 43.021 10.2868 42.1834C10.1965 42.1383 10.2868 42.1232 9.12317 42.7953C8.80719 42.9758 8.00973 42.7351 9.08806 41.6618C9.26862 41.4862 8.45109 41.2254 8.27555 40.7841C8.25788 40.7066 8.26175 40.6257 8.28674 40.5502C8.31172 40.4747 8.35688 40.4075 8.41732 40.3559C8.47775 40.3042 8.55117 40.2701 8.62961 40.2571C8.70806 40.2442 8.78855 40.253 8.86236 40.2825C9.86546 40.6537 9.98082 40.9596 10.3118 40.7038C10.9388 40.2023 11.1394 40.2023 10.9789 40.127C10.2366 39.7158 10.0711 39.6857 10.0611 39.3998C10.0611 38.9835 10.5375 38.9384 10.9338 39.0838C11.8165 39.4148 12.0071 39.6807 12.288 39.5151C13.2911 38.9333 15.1969 38.181 16.3004 38.6976C17.805 39.4249 16.6264 40.9747 16.5913 41.1101C16.832 41.1452 19.5454 39.8763 20.8695 40.6085C22.1936 41.3408 21.5165 42.715 20.4983 43.7883C20.7732 43.9151 21.0243 44.0882 21.2406 44.2999ZM14.9712 43.1564C14.7455 43.2718 15.1518 43.3771 17.3135 44.4905C17.5141 44.5958 17.484 44.5708 18.5473 43.7482C22.2989 40.8142 19.3197 40.9847 14.9712 43.1363V43.1564ZM14.6653 39.6857C13.6622 39.9916 11.1896 41.4461 11.3601 41.5514C13.5569 42.6047 13.4014 42.5545 13.5468 42.4342C14.0887 42.0344 14.6031 41.5988 15.0866 41.1301C16.2502 39.9013 15.7085 39.3496 14.6653 39.6656V39.6857Z" fill="#5D34D6"/>
<path fill-rule="evenodd" clip-rule="evenodd" d="M29.6792 41.8234C29.802 41.9804 29.802 42.2337 29.802 42.9655C29.788 42.9655 29.805 43.9054 29.8296 45.2917C29.8948 48.9174 30.0142 55.5945 29.782 56.4873C29.5944 57.1669 29.2368 57.3735 25.1838 59.7157C24.4808 60.1217 23.7783 60.5285 23.0762 60.936C20.7691 62.2701 18.7077 63.3535 17.5893 63.9002C17.504 63.9413 17.4127 63.9874 17.318 64.0361C16.8465 64.2778 16.2787 64.5687 15.7983 64.477C15.066 64.3315 5.32087 58.7944 3.71591 57.3951C2.75645 56.5424 2.67068 53.653 2.62705 52.1709L2.61802 51.878C2.49765 48.2618 2.38229 44.415 2.81363 42.4088C2.95908 41.6514 13.2459 36.0541 15.3524 35.0911C15.5133 35.0264 15.693 35.0264 15.8539 35.0911C20.472 36.916 24.9524 39.0715 29.2604 41.5411C29.471 41.6619 29.6004 41.7231 29.6787 41.8234H29.6792ZM15.7887 35.5024C15.2671 35.3269 3.24496 42.5241 3.48069 42.6946C5.45679 44.1552 11.172 46.7773 13.7675 47.9689C14.6041 48.3526 15.1166 48.5878 15.0765 48.5878C15.386 48.7413 15.55 48.8632 15.7315 48.9023C16.2732 49.0197 16.9734 48.4043 22.1835 45.719C24.6361 44.4501 28.7688 42.153 28.824 42.0827C28.8365 42.0647 28.845 42.0442 28.849 42.0226C28.8529 42.001 28.8523 41.9788 28.8471 41.9575C28.8419 41.9362 28.8322 41.9162 28.8187 41.8989C28.8052 41.8816 28.7882 41.8673 28.7688 41.857C28.0617 41.3555 16.9674 36.0541 15.7887 35.5024ZM15.3423 50.6041C15.1568 52.0285 14.9511 62.8569 15.8991 63.4237C16.2802 63.6489 16.2301 62.6618 16.1147 60.3848C16.0469 59.108 15.9934 57.8305 15.9542 56.5525C15.9351 55.8686 15.9176 55.1846 15.9016 54.5006C15.8504 52.3906 15.8063 50.574 15.7185 50.3684C15.6834 50.2881 15.4025 50.1627 15.3423 50.6041Z" fill="#A28AE8"/>
<path d="M58.0193 37.1627C58.24 36.27 58.5208 36.9922 56.7855 35.3672C56.6128 35.2183 56.4983 35.0131 56.4623 34.788C56.4263 34.5628 56.4711 34.3322 56.5889 34.1369C56.6661 34.0075 56.7734 33.8981 56.9008 33.8174C57.4776 33.3158 57.8387 33.3961 58.5509 33.9628C60.1057 35.2017 59.3283 34.7653 60.4167 34.4644C62.6235 33.8475 64.9306 35.5377 65.2817 37.2731C65.3269 37.5088 65.5776 37.3082 66.5256 37.7144C68.933 38.7175 68.4264 39.8811 69.0333 39.7608C69.6667 39.6595 70.3147 39.7002 70.9305 39.8797C71.5463 40.0592 72.1146 40.3732 72.5943 40.799C72.6073 40.8101 72.6176 40.824 72.6247 40.8396C72.6317 40.8552 72.6352 40.8721 72.6349 40.8892C72.635 40.9063 72.6313 40.9232 72.6243 40.9388C72.6173 40.9543 72.6071 40.9682 72.5943 40.9795C71.1398 41.9826 71.1498 42.0077 70.9994 41.9325C68.4565 40.4278 66.5607 42.434 66.8165 41.4008C67.0723 40.3676 67.4233 40.6886 67.1976 40.2122C66.9719 39.7357 66.0541 39.2091 65.4322 39.0486C65.1162 38.9683 65.5024 39.5501 64.4742 40.5532C63.9075 41.0949 64.0579 39.7557 63.7721 39.7307C63.4862 39.7056 63.5363 41.2654 64.4391 42.0027C65.5074 42.8804 66.4955 42.5042 68.2409 41.8372C68.8929 41.5764 68.5568 42.8403 68.2058 43.2164C68.1255 43.2967 68.1606 43.4171 68.271 43.5876C68.928 44.5907 69.4145 45.0922 70.6383 45.333C70.7035 45.4985 70.7035 45.1825 70.6934 46.9931C70.6934 47.0182 70.6583 47.0483 70.6383 47.0834C70.217 47.0382 68.301 47.3592 66.7462 44.2546C66.7291 44.2051 66.6933 44.1643 66.6464 44.1409C66.5995 44.1174 66.5454 44.1133 66.4955 44.1293C65.5793 44.3321 64.6218 44.2263 63.7721 43.8283C63.3875 43.6179 63.0496 43.3315 62.7789 42.9867C62.5082 42.6419 62.3103 42.2457 62.1972 41.8221C62.137 41.6416 62.152 41.5814 61.801 41.5513C60.9716 41.5103 60.1726 41.226 59.5039 40.7338C57.7886 39.2843 57.8538 37.8398 58.0193 37.1627ZM63.0348 38.1658C63.6467 37.6242 63.762 37.7947 63.6818 37.589C63.5127 37.1477 63.2155 36.7669 62.8283 36.4958C62.4411 36.2248 61.9817 36.0757 61.5091 36.0678C61.1954 36.0624 60.8838 36.1191 60.5922 36.2349C59.0174 36.8919 59.4688 39.2793 62.0517 39.9112C62.2724 39.9814 62.1119 39.199 63.0197 38.1809L63.0348 38.1658Z" fill="#5D34D6"/>
<path d="M89.1202 44.2999C89.4613 44.7062 89.1202 45.0322 88.6889 44.977C87.761 44.8617 87.6858 44.335 87.2394 44.6861C87.0388 44.8567 86.8683 44.957 86.6777 45.0924C86.3818 45.298 86.9887 45.3131 87.3548 45.7043C87.8563 46.2058 87.1491 46.7074 85.7799 45.9952C85.2483 45.7243 83.6935 47.1788 83.1819 46.4064C82.9662 46.0854 84.4458 45.4033 84.2201 45.3181C82.1788 44.5206 79.7563 43.021 78.1664 42.1834C78.0761 42.1383 78.1664 42.1232 77.0028 42.7953C76.6868 42.9758 75.8894 42.7351 76.9677 41.6618C77.1533 41.4862 76.3357 41.2254 76.1552 40.7841C76.1397 40.7068 76.145 40.6268 76.1706 40.5524C76.1963 40.4779 76.2413 40.4116 76.3011 40.3603C76.3609 40.3089 76.4333 40.2746 76.5109 40.2609C76.5885 40.2473 76.6683 40.2547 76.742 40.2825C77.7451 40.6537 77.8504 40.9646 78.1915 40.7038C78.8234 40.2023 79.014 40.2023 78.8485 40.127C78.1112 39.7308 77.9407 39.6857 77.9407 39.3998C77.9407 38.9835 78.4172 38.9384 78.8134 39.0838C79.6961 39.4148 79.8867 39.6807 80.1726 39.5151C81.1757 38.9333 83.0766 38.181 84.185 38.6976C85.6896 39.4249 84.511 40.9747 84.4759 41.1101C84.7267 41.1452 87.435 39.8712 88.7541 40.6085C90.0732 41.3458 89.4011 42.715 88.383 43.7883C88.6567 43.9145 88.9063 44.0876 89.1202 44.2999ZM82.8408 43.1564C82.6151 43.2718 83.0164 43.3771 85.1831 44.4905C85.3837 44.5958 85.3486 44.5708 86.4169 43.7482C90.1484 40.8442 87.2745 40.9496 82.8408 43.1363V43.1564ZM82.5449 39.6857C81.4816 40.0067 79.0742 41.4511 79.2447 41.5514C81.4365 42.6047 81.281 42.5545 81.4265 42.4342C81.9591 42.0368 82.462 41.6009 82.9311 41.1301C84.1148 39.8863 83.5881 39.3496 82.5449 39.6656V39.6857Z" fill="#5D34D6"/>
<path fill-rule="evenodd" clip-rule="evenodd" d="M97.5593 41.8234C97.6822 41.9804 97.6822 42.2337 97.6822 42.9655C97.6681 42.9655 97.6832 43.8938 97.7052 45.2666C97.7639 48.8948 97.8722 55.6251 97.632 56.5023C97.4354 57.1834 97.0793 57.3896 92.9967 59.7493C92.3908 60.0994 91.7027 60.4972 90.9213 60.9511C88.6141 62.2902 86.5528 63.3685 85.4343 63.9152C85.3442 63.9592 85.2548 64.0046 85.166 64.0511C84.697 64.2939 84.1293 64.5878 83.6488 64.492C82.9115 64.3466 73.1764 58.7994 71.5664 57.4101C70.61 56.5665 70.5207 53.6334 70.4761 52.1589L70.4681 51.8931C70.3427 48.2719 70.2173 44.43 70.6586 42.4238C70.8292 41.6614 81.1059 36.0942 83.2275 35.0911C83.3884 35.0264 83.5681 35.0264 83.729 35.0911C88.3484 36.9166 92.8305 39.0722 97.1405 41.5411C97.3516 41.6619 97.4805 41.7231 97.5593 41.8234ZM81.5503 47.9338C82.2093 48.2378 82.7064 48.4675 82.9516 48.5884C83.2631 48.7423 83.4276 48.8647 83.6102 48.9043C84.1528 49.0232 84.855 48.4103 90.0686 45.7195C92.5262 44.4506 96.654 42.1535 96.7092 42.0832C96.7137 42.0757 96.7197 42.0687 96.7252 42.0622C96.8501 41.9162 96.9364 41.8154 83.6689 35.5029C83.1422 35.3274 71.1251 42.5246 71.3558 42.6951C73.2878 44.1175 78.8153 46.6704 81.5503 47.9338ZM83.2124 50.6046C83.0319 52.0139 82.8363 62.8575 83.7792 63.4242C84.1448 63.6414 84.1022 62.7912 83.9893 60.5318C83.9202 59.2061 83.8652 57.8798 83.8243 56.553C83.8052 55.8691 83.7877 55.1851 83.7717 54.5011C83.7205 52.3911 83.6759 50.5745 83.5886 50.3689C83.5535 50.2886 83.2726 50.1632 83.2124 50.6046Z" fill="#A28AE8"/>
<path d="M39.251 34.133C39.582 34.4089 39.7977 33.9324 40.9011 33.1901C41.4026 32.8441 41.7036 32.7638 42.2603 33.2954C42.3887 33.3926 42.4917 33.5193 42.5607 33.6648C42.6298 33.8103 42.6627 33.9702 42.6568 34.1311C42.6509 34.292 42.6063 34.4492 42.5268 34.5892C42.4473 34.7292 42.3353 34.848 42.2001 34.9355C40.6052 36.38 40.9312 35.6176 41.0616 36.711C41.3073 38.8025 39.4867 40.5679 37.9269 40.8187C36.8636 40.9892 36.8486 40.7384 36.7583 41.0645C36.4748 41.9317 35.8714 42.6583 35.071 43.0963C34.2705 43.5343 33.3332 43.6507 32.45 43.4217C32.1541 43.3315 32.2694 43.3264 32.0437 43.7477C31.5719 44.6684 30.8299 45.4227 29.9171 45.9094C29.8018 45.7038 29.872 46.1602 29.8469 43.9032C29.8469 43.6876 30.2181 43.3365 30.4588 43.0305C31.1209 42.1879 30.4087 42.7146 30.3134 41.2751C30.2532 40.4225 32.46 42.0876 33.8744 41.7064C34.141 41.6273 34.3892 41.4959 34.6045 41.3199C34.8199 41.1439 34.9981 40.9268 35.1288 40.6813C35.2595 40.4358 35.34 40.1668 35.3658 39.8899C35.3915 39.6129 35.3619 39.3337 35.2787 39.0683C35.2536 39.0231 35.1784 39.0683 35.1784 39.0934C35.1686 39.3816 35.1179 39.667 35.0279 39.941C34.9427 40.1566 34.727 40.0965 34.5866 39.941C33.4882 38.7974 34.0399 38.1404 33.433 38.326C32.8261 38.5116 31.9284 38.9579 31.7478 39.5448C31.6224 39.941 31.9885 39.7955 32.2494 40.8688C32.3296 41.235 31.9284 41.0594 31.7177 40.9591C30.7898 40.5278 29.21 40.3974 28.3122 40.9591C27.6538 40.6573 27.011 40.3225 26.3862 39.956C26.8997 39.5343 27.4999 39.2311 28.1441 39.0681C28.7883 38.9051 29.4605 38.8863 30.1127 39.0131C30.4688 39.0984 30.3435 37.7893 32.6205 36.9668C33.3879 36.6909 33.739 36.8213 33.7841 36.6057C33.9449 36.013 34.2619 35.4743 34.7019 35.0459C35.9508 33.5563 38.4936 33.5111 39.251 34.133ZM35.379 36.9367C35.2436 37.2426 35.9709 37.0922 36.4874 38.2859C36.6448 38.5674 36.7565 38.8721 36.8185 39.1887C36.8636 39.6902 39.4416 38.6119 39.3613 36.9016C39.2811 35.1913 36.357 34.77 35.379 36.9367Z" fill="#5D34D6"/>
<path d="M65.4977 64.2011C65.4916 64.2997 65.4916 64.3985 65.4977 64.497V64.2011ZM75.9851 52.6203C75.7443 52.505 75.4534 52.6855 75.0672 52.9564C73.6378 53.9595 73.8384 54.0297 73.5074 53.794C71.9075 52.6504 68.5471 54.0447 68.0556 56.2716C67.9753 56.6227 65.944 56.2315 64.5146 58.6139C64.319 58.8747 63.9729 58.3129 63.3159 58.659C65.5729 59.9028 65.4274 59.6972 65.4525 60.5849C65.8588 60.7856 65.9541 60.7605 66.3252 60.931C66.5258 61.0213 66.571 60.7956 66.5058 60.5348C66.2299 59.4615 65.929 59.7022 66.0393 59.2909C66.2099 58.6841 67.3735 58.0872 67.8951 58.0371C68.211 58.007 67.7948 58.4684 68.8982 59.6872C69.0236 59.8226 69.2593 59.8477 69.3044 59.6872C69.495 59.0051 69.4298 58.7844 69.485 58.7844C69.806 58.7844 69.7558 60.5849 68.186 61.4175C67.4688 61.7987 66.9772 61.4175 65.603 60.9561C65.5478 60.9561 65.4375 60.8809 65.4375 61.0313C65.4375 61.2721 65.3974 64.5121 65.5478 64.5422C66.7064 63.1077 66.3302 63.0375 66.6613 63.1178C67.3485 63.3093 68.0773 63.2908 68.7539 63.0647C69.4305 62.8385 70.024 62.4151 70.458 61.8488C71.3307 60.6853 70.8091 60.5749 71.3407 60.5849C73.7632 60.6301 75.8196 58.3932 75.2127 56.071C75.1625 55.8954 75.1425 55.765 75.2478 55.6798C76.3061 54.767 76.4916 54.6767 76.6822 54.456C77.1085 53.9795 77.0333 53.1118 75.9851 52.6203ZM71.6918 58.8847C71.2856 58.97 71.12 59.0903 71.0849 58.8847C71.0053 58.4654 70.8416 58.0667 70.6037 57.7124C70.3658 57.3581 70.0586 57.0557 69.7007 56.8233C69.6104 56.7782 69.6104 56.7431 69.6555 56.6528C70.4781 54.9927 72.394 54.787 73.2416 55.7149C74.2848 56.8384 72.9908 58.6239 71.6918 58.8847Z" fill="#5D34D6"/>
<path d="M55.7319 62.6062C56.1231 63.0676 55.7319 63.4338 55.2304 63.3786C54.1771 63.2432 54.0567 62.6463 53.5903 63.0476C53.3887 63.2151 53.1775 63.3706 52.9583 63.514C52.6273 63.7397 53.3094 63.7598 53.7257 64.2011C54.2724 64.7779 53.49 65.3347 51.9502 64.5422C51.3383 64.2262 49.5929 65.8713 48.9961 65.0036C48.7503 64.6425 50.4456 63.8802 50.1848 63.7849C47.8425 62.9322 45.1041 61.2219 43.3185 60.2339C43.2182 60.1737 43.3185 60.1536 42.0045 60.921C41.6584 61.1266 40.7305 60.8307 41.9744 59.632C42.185 59.4264 41.2672 59.1305 41.0465 58.6289C41.0293 58.5414 41.0358 58.4509 41.0652 58.3667C41.0946 58.2826 41.146 58.2078 41.2139 58.15C41.2819 58.0923 41.364 58.0537 41.4518 58.0383C41.5397 58.0228 41.63 58.0311 41.7136 58.0622C42.8671 58.4935 42.9775 58.8295 43.3537 58.5637C44.0608 58.017 44.2915 58.012 44.101 57.9067C43.2584 57.4603 43.0678 57.4051 43.0678 57.0942C43.0678 56.5926 43.6044 56.5625 44.0709 56.7331C45.074 57.0992 45.2896 57.4102 45.6106 57.2346C46.7491 56.5876 48.9108 55.73 50.1246 56.3168C51.8349 57.1443 50.4957 58.8998 50.4506 59.0552C50.7264 59.0904 53.8009 57.6509 55.3056 58.4785C56.72 59.2559 55.9977 60.8307 54.8542 62.0545C55.1781 62.1831 55.4756 62.3701 55.7319 62.6062ZM48.6199 61.2972C48.3591 61.4175 48.8557 61.4978 51.2781 62.8018C51.5089 62.9222 51.4687 62.8771 52.6724 61.9542C56.74 58.8446 53.9263 58.7443 48.6199 61.2972ZM48.2939 57.37C47.1654 57.7111 44.3166 59.3762 44.5473 59.4866C47.0551 60.7003 46.8695 60.6151 47.025 60.4897C47.6326 60.0189 48.2152 59.5167 48.7704 58.985C50.0594 57.6359 49.4525 57.0139 48.2789 57.37H48.2939Z" fill="#5D34D6"/>
<path fill-rule="evenodd" clip-rule="evenodd" d="M65.3015 59.8159C65.4419 59.9954 65.4419 60.2843 65.4419 61.1164C65.4289 61.1164 65.4424 62.0362 65.463 63.4275C65.5222 67.4575 65.6395 75.4407 65.3416 76.4438C65.1219 77.2091 64.7157 77.4448 59.0818 80.7099L57.7381 81.4893C55.11 83.004 52.7778 84.2228 51.5139 84.8447C51.4316 84.8869 51.3498 84.9303 51.2686 84.9746C50.744 85.2565 50.0719 85.6181 49.5077 85.5017C48.6701 85.3362 37.5658 78.9816 35.8104 77.4769C34.734 76.5431 34.6402 73.3823 34.5896 71.669C34.5851 71.514 34.5811 71.3711 34.5765 71.2427C34.4311 67.135 34.2907 62.7815 34.7922 60.5045C35.0029 59.6468 46.6438 53.3022 49.0463 52.1888C49.1372 52.1492 49.2354 52.1287 49.3347 52.1287C49.4339 52.1287 49.5321 52.1492 49.623 52.1888C54.864 54.2493 59.9467 56.6917 64.83 59.4964C65.0673 59.6323 65.2127 59.702 65.3015 59.8159ZM35.4984 60.7392C35.5034 60.7623 35.537 60.7799 35.5796 60.8104C37.8316 62.432 44.0724 65.3129 47.0822 66.7027C48.1405 67.1917 48.8 67.4961 48.7453 67.4961C49.0949 67.6681 49.28 67.8051 49.4846 67.8487C50.0965 67.9801 50.8859 67.2829 56.7701 64.236C59.5387 62.7966 64.2232 60.1986 64.2934 60.1183C64.3144 60.0962 64.336 60.0787 64.3415 60.0571C64.3927 59.863 63.1975 59.3409 49.5277 52.6502C48.9861 52.3894 36.7382 59.9127 36.6429 60.0029C35.7075 60.5647 35.4864 60.674 35.4984 60.7392ZM49.0257 69.7731C48.815 71.3179 48.5793 83.6711 49.6677 84.3181C50.092 84.5704 50.0388 83.4915 49.9084 80.8464C49.8339 79.4062 49.7737 77.9654 49.7279 76.524C49.6978 75.5921 49.6727 74.6412 49.6491 73.7519C49.5904 71.5446 49.5418 69.7165 49.4525 69.5023C49.4074 69.407 49.0914 69.2716 49.0262 69.7731H49.0257Z" fill="#A28AE8"/>
<path d="M24.6009 60.349C23.3269 59.2807 22.0931 57.5704 22.8354 56.141C23.0761 55.6746 21.4561 55.0877 21.2054 54.2652C21.0148 53.6282 21.4311 53.1317 22.0329 52.8258C22.7903 52.4396 24.1695 54.4458 24.5407 54.0696C25.0309 53.7744 25.5997 53.6361 26.1707 53.6734C27.9161 53.874 29.1248 54.5661 29.8822 56.151C30.1079 57.104 29.9875 56.5172 31.1009 56.9686C33.4883 57.9315 33.2476 59.1904 33.7241 59.0851C34.5613 58.9716 35.4136 59.0717 36.2017 59.376C34.5516 60.4945 34.993 60.3039 34.7322 60.7904C34.2306 60.7904 34.2306 60.7001 33.8043 60.68C32.2997 60.5948 31.4771 61.5577 31.452 61.0161C31.4855 60.6616 31.6195 60.324 31.8382 60.0431C32.3398 59.4713 31.1009 58.6638 30.3336 58.403C29.7417 58.2074 30.1681 59.1503 29.1549 59.9427C28.7035 60.2988 28.9443 59.0751 28.4678 59.0349C28.207 58.9146 28.197 61.1063 29.8571 61.7885C30.6847 62.1245 30.7448 61.7533 32.9567 61.1314C33.1924 61.0612 33.3529 61.1866 33.3178 61.4374C33.1222 62.8969 32.405 62.2248 33.398 63.4737C34.7272 65.1438 34.5315 63.248 34.5065 66.3225C33.4917 66.03 32.6071 65.4002 31.9987 64.5369C31.8069 64.2155 31.6392 63.8802 31.4972 63.5338C31.3266 63.1928 31.3969 63.6592 29.9925 63.5338C29.4845 63.4952 28.9917 63.3421 28.5513 63.0858C28.1109 62.8296 27.7343 62.4769 27.4497 62.0543C26.7425 61.0863 27.1437 60.8857 26.7124 60.8205C25.9772 60.879 25.2413 60.7147 24.6009 60.349ZM24.3601 56.9535C24.3049 58.1271 25.5989 58.8143 26.6823 59.2757C27.0083 59.4161 26.7475 58.0068 28.3073 57.0789C28.6133 56.8983 27.1337 55.0727 25.7996 55.4288C24.972 55.6495 24.3501 56.0457 24.3601 56.9485V56.9535Z" fill="#5D34D6"/>
</svg>
