<svg width="14" height="14" viewBox="0 0 14 14" fill="none" xmlns="http://www.w3.org/2000/svg">
<path d="M7 9.62492V8.45825" stroke="white" stroke-width="1.5" stroke-linecap="round"/>
<path d="M2.48972 10.9927C2.6209 11.9671 3.42791 12.7304 4.40996 12.7755C5.23632 12.8135 6.07576 12.8333 7.00017 12.8333C7.92458 12.8333 8.76399 12.8135 9.59034 12.7755C10.5724 12.7304 11.3794 11.9671 11.5106 10.9927C11.5962 10.3569 11.6668 9.70527 11.6668 9.04167C11.6668 8.37807 11.5962 7.72643 11.5106 7.09059C11.3794 6.11625 10.5724 5.35295 9.59034 5.3078C8.76399 5.26982 7.92458 5.25 7.00017 5.25C6.07576 5.25 5.23632 5.26982 4.40996 5.3078C3.42791 5.35295 2.6209 6.11625 2.48972 7.09059C2.40411 7.72643 2.3335 8.37807 2.3335 9.04167C2.3335 9.70527 2.40411 10.3569 2.48972 10.9927Z" stroke="white" stroke-width="1.5"/>
<path d="M4.375 5.25008V3.79175C4.375 2.342 5.55025 1.16675 7 1.16675C8.44976 1.16675 9.625 2.342 9.625 3.79175V5.25008" stroke="white" stroke-width="1.5" stroke-linecap="round" stroke-linejoin="round"/>
</svg>
