<svg width="100" height="45" viewBox="0 0 100 45" fill="none" xmlns="http://www.w3.org/2000/svg">
<path fill-rule="evenodd" clip-rule="evenodd" d="M2.06858 10H19.8075C20.9452 10 21.8761 10.9303 21.8761 12.068V32.833C21.8761 33.9707 20.9452 34.9016 19.8075 34.9016H2.06858C0.930886 34.9016 0 33.9707 0 32.833V12.068C0 10.9303 0.930886 10 2.06858 10ZM9.16719 23.699C9.09772 24.8079 9.00381 25.9168 8.8996 27.0246C9.47061 27.0246 10.0427 27.0246 10.6137 27.0246C11.1842 27.0246 11.7563 27.0246 12.3284 27.0246C12.6465 27.0246 12.7833 26.839 12.7257 26.4715C12.6112 25.7333 12.4929 24.9951 12.4077 24.2548C12.3648 23.8846 12.222 23.699 11.9588 23.699C11.4931 23.699 11.0268 23.699 10.5622 23.699C10.0975 23.699 9.63182 23.699 9.16719 23.699ZM9.15091 21.2043C9.62097 21.2043 10.0927 21.2043 10.5622 21.2043C11.0317 21.2043 11.5039 21.2043 11.9745 21.2043C12.2356 21.2043 12.3854 21.0192 12.4321 20.6479C12.5244 19.9097 12.6329 19.1726 12.7469 18.4344C12.8039 18.0632 12.6671 17.8786 12.3403 17.8786C11.765 17.8786 11.1891 17.8786 10.6148 17.8786C10.04 17.8786 9.46464 17.8786 8.88983 17.8786C8.98644 18.9875 9.07926 20.0965 9.15091 21.2043ZM16.7934 28.6867C17.0387 29.7815 16.4493 30.3503 15.3626 30.3503C13.6078 30.3503 11.8524 30.3503 10.0975 30.3503C8.3427 30.3503 6.58731 30.3503 4.83247 30.3503C5.26778 27.7183 6.49069 25.1124 6.46084 22.4522C6.43044 19.7827 5.24607 17.1849 4.83247 14.5513C6.58731 14.5513 8.3427 14.5513 10.0975 14.5513C11.8524 14.5513 13.6078 14.5513 15.3626 14.5513C16.4715 14.5513 17.0436 15.1185 16.8005 16.2166C16.6137 17.0606 16.2826 17.8791 15.9808 18.7112C15.6801 19.5412 15.3919 20.3678 15.2003 21.2043C15.0749 21.7525 14.854 22.1287 14.4616 22.3132C14.8432 22.4983 15.0141 22.8712 15.1042 23.4221C15.2486 24.3074 15.5439 25.1824 15.8723 26.0563C16.2034 26.9362 16.5931 27.7932 16.7934 28.6867Z" fill="white"/>
<path d="M23.8762 15.5239H27.2774V29.3776H23.8762V15.5239ZM32.6228 25.9765C32.6228 26.2983 32.7856 26.4606 33.1107 26.4606H35.5397C35.8648 26.4606 36.0277 26.2983 36.0277 25.9765V22.3294C36.0212 22.0108 35.8583 21.8485 35.5397 21.8415H33.1107C32.7856 21.8485 32.6228 22.0108 32.6228 22.3294V25.9765ZM39.4288 27.9175C39.4288 28.8896 38.9446 29.3776 37.972 29.3776H30.6785C29.7063 29.3776 29.2216 28.8896 29.2216 27.9175V20.3852C29.2216 19.4195 29.7063 18.9316 30.6785 18.9283H37.972C38.9446 18.9316 39.4288 19.4195 39.4288 20.3852V27.9175ZM41.3736 20.3852C41.3736 19.4125 41.8578 18.9283 42.8299 18.9283H51.0961L49.636 21.8415H45.2622C44.937 21.8415 44.7748 22.0043 44.7748 22.3294V25.9765C44.7748 26.2983 44.937 26.4606 45.2622 26.4606H51.0961L49.636 29.3776H42.8299C41.8578 29.3776 41.3736 28.8896 41.3736 27.9175V20.3852ZM55.9541 29.3776H52.553V15.5239H55.9541V29.3776ZM58.871 18.9283H62.7601L59.8432 23.3016L62.7297 29.3776H58.871L56.1994 23.3016L58.871 18.9283Z" fill="white"/>
<path d="M67.6214 23.5442V29.3776H64.2197V15.5239H67.6312L67.6409 21.3573H71.9979L71.9882 15.5239H75.3893V29.3776H71.9979V23.5442H67.6214ZM86.0844 29.3776H78.7904C77.8248 29.3776 77.3406 28.8896 77.3341 27.9175V18.9283H80.7352V25.9765C80.7352 26.2983 80.8975 26.4606 81.2227 26.4606H83.6516C83.9773 26.4606 84.1396 26.2983 84.1396 25.9765V18.9283H87.5407V27.9175C87.5277 28.8896 87.043 29.3776 86.0844 29.3776ZM95.8036 26.4606C96.1288 26.4606 96.2916 26.2983 96.2916 25.9765V22.3294C96.2846 22.0043 96.1223 21.8415 95.8036 21.8415H92.8867V26.4606H95.8036ZM98.2359 29.3776H89.4856V15.5239H92.8867V18.9283H98.2359C99.2015 18.9283 99.6857 19.4125 99.6927 20.3852V27.9175C99.6927 28.8896 99.208 29.3776 98.2359 29.3776Z" fill="white"/>
</svg>
