<svg width="30" height="30" viewBox="0 0 30 30" fill="none" xmlns="http://www.w3.org/2000/svg">
<path d="M22.5 9H7.5V21H22.5V9Z" fill="white"/>
<path d="M15 4.5C12.9234 4.5 10.8932 5.11581 9.16652 6.26956C7.43981 7.42332 6.09399 9.06319 5.29928 10.9818C4.50456 12.9004 4.29661 15.0117 4.70175 17.0484C5.1069 19.0852 6.10694 20.956 7.57539 22.4247C9.04383 23.893 10.9148 24.8931 12.9516 25.2983C14.9883 25.7034 17.0996 25.4953 19.0182 24.7006C20.9368 23.906 22.5767 22.5603 23.7304 20.8335C24.8843 19.1068 25.5 17.0767 25.5 15C25.5 12.2152 24.3937 9.54452 22.4247 7.57538C20.4555 5.60624 17.7847 4.5 15 4.5ZM20.1582 11.6925L18.4387 19.8168C18.3075 20.3943 17.9663 20.5256 17.4806 20.2631L14.8556 18.3206L13.5431 19.5413C13.4813 19.622 13.4019 19.6877 13.3109 19.7331C13.22 19.7786 13.1198 19.8027 13.0181 19.8038L13.2019 17.1787L18.0581 12.7819C18.2812 12.5981 18.058 12.4931 17.7431 12.6769L11.7844 16.4175L9.15938 15.6037C8.595 15.4331 8.58188 15.0394 9.2775 14.7769L19.3969 10.8394C19.8957 10.695 20.3157 10.9838 20.1582 11.6925Z" fill="url(#paint0_linear_84_929)"/>
<defs>
<linearGradient id="paint0_linear_84_929" x1="15" y1="4.5" x2="15" y2="25.5" gradientUnits="userSpaceOnUse">
<stop stop-color="#425AFA"/>
<stop offset="1" stop-color="#425AFA"/>
</linearGradient>
</defs>
</svg>
