<svg width="28" height="28" viewBox="0 0 28 28" fill="none" xmlns="http://www.w3.org/2000/svg">
<g clip-path="url(#clip0_86_1117)">
<path fill-rule="evenodd" clip-rule="evenodd" d="M3.91712 10.2661C3.91712 8.13519 5.64459 6.40772 7.77553 6.40772H20.222C22.3529 6.40772 24.0804 8.13519 24.0804 10.2661V17.734C24.0804 19.8649 22.3529 21.5924 20.222 21.5924H7.77553C5.64459 21.5924 3.91712 19.8649 3.91712 17.734V10.2661ZM7.77553 4.16736C4.40727 4.16736 1.67676 6.89787 1.67676 10.2661V17.734C1.67676 21.1023 4.40727 23.8328 7.77553 23.8328H20.222C23.5903 23.8328 26.3208 21.1023 26.3208 17.734V10.2661C26.3208 6.89787 23.5903 4.16736 20.222 4.16736H7.77553ZM12.0881 9.30502C11.7421 9.09738 11.3111 9.09195 10.9599 9.29079C10.6087 9.48962 10.3916 9.862 10.3916 10.2656V17.7334C10.3916 18.137 10.6087 18.5094 10.9599 18.7082C11.3111 18.9071 11.7421 18.9016 12.0881 18.694L18.3113 14.9601C18.6488 14.7576 18.8552 14.393 18.8552 13.9995C18.8552 13.606 18.6488 13.2414 18.3113 13.039L12.0881 9.30502ZM15.5578 13.9995L12.632 15.755V12.244L15.5578 13.9995Z" fill="#5D34D6"/>
</g>
<defs>
<clipPath id="clip0_86_1117">
<rect width="28" height="28" fill="white"/>
</clipPath>
</defs>
</svg>
